<svg width="212" height="56" viewBox="0 0 212 56" fill="none" xmlns="http://www.w3.org/2000/svg">
<g clip-path="url(#clip0_5_705)">
<path d="M195.801 13.4537C194.927 13.4537 192.874 14.9067 190.478 17.6273C191.634 24.3597 192.803 30.2284 193.863 34.6203C195.734 42.3741 196.926 44.151 197.371 44.5582C197.392 44.5775 197.417 44.5923 197.444 44.6016C197.471 44.6109 197.5 44.6145 197.528 44.6122C197.557 44.6099 197.584 44.6018 197.61 44.5883C197.635 44.5749 197.657 44.5564 197.675 44.5339C197.93 44.207 198.458 43.1752 198.969 39.9639C200.793 28.4878 200.147 17.4671 197.47 14.3293C196.967 13.7399 196.421 13.4537 195.801 13.4537ZM200.321 40.1776C199.67 44.284 198.841 46.0374 197.553 46.0456H197.543C196.345 46.0456 194.919 44.7249 192.609 35.2609C191.581 31.045 190.45 25.4477 189.327 19.0041C188.44 20.1156 187.527 21.3866 186.625 22.8058C185.965 23.847 185.346 24.9132 184.769 26.0021C187.175 30.7028 189.721 37.5099 189.721 45.267V45.9521H178.273V45.267C178.273 37.5099 180.82 30.7028 183.225 26.0021C182.649 24.9128 182.03 23.8466 181.37 22.8058C180.473 21.3933 179.565 20.1301 178.684 19.0213C177.848 23.8028 176.667 30.0672 175.398 35.2599C173.083 44.7249 171.653 46.0456 170.454 46.0456H170.445C169.155 46.0374 168.326 44.283 167.673 40.1776C166.81 34.7462 166.463 29.1307 166.695 24.3687C166.875 20.6622 167.505 15.7582 169.484 13.4402C170.252 12.5404 171.165 12.0843 172.193 12.0843C173.551 12.0843 175.68 13.6129 177.945 16.0559C178.588 14.6095 179.82 14.0638 180.773 13.6447C181.203 13.4537 181.825 13.231 182.12 12.7631C182.269 12.5287 182.252 12.1927 182.167 11.982C181.888 11.2859 180.414 10.9075 178.159 11.4769C177.93 7.29976 181.486 5.71059 183.468 5.6761C186.678 5.62161 188.783 7.74766 189.425 11.6636L190.177 15.9199C192.395 13.5569 194.47 12.0843 195.801 12.0843C196.831 12.0843 197.743 12.5404 198.511 13.4402C200.49 15.7572 201.12 20.6622 201.3 24.3687C201.532 29.1307 201.185 34.7462 200.321 40.1776ZM183.997 3.8147e-05C168.558 3.8147e-05 155.997 12.5604 155.997 27.9994C155.997 43.4397 168.558 56 183.997 56C199.437 56 211.997 43.4397 211.997 27.9994C211.997 12.5604 199.437 3.8147e-05 183.997 3.8147e-05ZM183.324 7.04181C181.372 7.16778 180.056 8.49176 179.649 9.88771C180.554 9.83397 181.92 9.87572 182.783 10.5891C183.051 10.8109 183.264 11.0916 183.406 11.4093C183.548 11.727 183.615 12.0732 183.602 12.4209C183.426 15.3656 179.572 14.3263 178.994 17.2424C180.191 18.6584 181.399 20.2968 182.526 22.0724C183.042 22.8839 183.533 23.7112 183.997 24.5531C184.463 23.7118 184.954 22.8845 185.468 22.0724C186.601 20.2893 187.815 18.6429 189.017 17.2237L188.056 11.7821C187.666 9.36282 186.19 6.85985 183.324 7.04181ZM172.193 13.4537C171.575 13.4537 171.029 13.7399 170.526 14.3293C167.846 17.4671 167.203 28.4878 169.026 39.9639C169.538 43.182 170.068 44.2115 170.322 44.5357C170.397 44.6297 170.537 44.6407 170.625 44.5602C171.07 44.1565 172.265 42.3881 174.144 34.6235C175.481 29.0939 176.716 22.3983 177.532 17.6438C175.13 14.9122 173.068 13.4537 172.193 13.4537ZM179.649 44.5837H188.344C188.211 37.8468 186.117 31.8794 183.997 27.521C181.878 31.8794 179.785 37.8468 179.649 44.5837ZM142.424 37.7134C142.424 37.4848 142.394 37.2806 142.335 37.101C142.236 36.8124 142.064 36.5861 141.818 36.4221C141.571 36.258 141.28 36.1759 140.945 36.1759C140.6 36.1759 140.304 36.258 140.057 36.4221C139.811 36.5863 139.638 36.8127 139.54 37.1013C139.48 37.2807 139.451 37.4848 139.451 37.7134C139.451 37.7729 139.48 37.8027 139.54 37.8029H142.335C142.394 37.8029 142.424 37.773 142.424 37.7134ZM141.004 42.2257C140.244 42.2257 139.61 42.0506 139.101 41.7003C138.591 41.3504 138.239 40.8649 138.043 40.2438C137.96 39.9956 137.899 39.7405 137.86 39.4815C137.816 39.2007 137.794 38.873 137.794 38.4982C137.794 38.1233 137.814 37.793 137.853 37.5074C137.892 37.2211 137.95 36.9647 138.029 36.7381C138.224 36.1165 138.579 35.6333 139.094 35.2884C139.608 34.9435 140.22 34.7709 140.93 34.7707C141.669 34.7707 142.293 34.9457 142.801 35.2956C143.309 35.6459 143.662 36.1266 143.859 36.7378C143.898 36.8661 143.932 36.9944 143.962 37.1225C143.992 37.2508 144.016 37.3986 144.036 37.5659C144.056 37.734 144.071 37.9239 144.081 38.1355C144.09 38.3478 144.095 38.5969 144.095 38.8829C144.095 38.9814 144.041 39.0307 143.933 39.0308H139.54C139.48 39.0308 139.451 39.0603 139.451 39.1193C139.451 39.2278 139.461 39.3265 139.48 39.4153C139.5 39.5039 139.525 39.5877 139.554 39.6665C139.801 40.3863 140.333 40.7462 141.152 40.7462C141.556 40.7464 141.892 40.6823 142.158 40.5538C142.424 40.4261 142.646 40.2635 142.823 40.0659C142.902 39.9872 142.976 39.9775 143.045 40.0366L143.918 40.8055C143.987 40.8648 143.992 40.9338 143.933 41.0124C143.627 41.3674 143.227 41.6584 142.735 41.8855C142.241 42.1121 141.664 42.2257 141.004 42.2257ZM134.316 42.2254C133.597 42.2254 132.978 42.0578 132.46 41.7225C131.942 41.3873 131.58 40.899 131.373 40.2578C131.225 39.8143 131.151 39.2276 131.151 38.498C131.151 37.7683 131.225 37.1816 131.373 36.7378C131.58 36.097 131.942 35.6087 132.46 35.2731C132.978 34.938 133.597 34.7705 134.316 34.7705C134.849 34.7705 135.322 34.869 135.737 35.0659C136.142 35.2567 136.501 35.5346 136.787 35.8798C136.846 35.9587 136.841 36.0277 136.772 36.0867L135.84 36.9005C135.761 36.9595 135.692 36.9495 135.633 36.8706C135.455 36.6734 135.265 36.5206 135.064 36.4121C134.861 36.3038 134.612 36.2497 134.316 36.2497C134.001 36.2497 133.727 36.3261 133.496 36.4789C133.264 36.6317 133.094 36.8658 132.985 37.1812C132.926 37.3589 132.887 37.5537 132.867 37.7656C132.846 38.0091 132.836 38.2535 132.837 38.498C132.837 38.7739 132.847 39.0204 132.867 39.2376C132.887 39.4547 132.926 39.6519 132.985 39.8292C133.094 40.1348 133.264 40.3641 133.496 40.517C133.727 40.67 134.001 40.7464 134.316 40.7462C134.612 40.7462 134.861 40.692 135.064 40.5835C135.265 40.4752 135.455 40.3223 135.633 40.1249C135.692 40.0562 135.761 40.0512 135.84 40.1099L136.772 40.924C136.831 40.9731 136.836 41.0421 136.787 41.1309C136.501 41.4663 136.151 41.7325 135.737 41.9295C135.322 42.1268 134.849 42.2254 134.316 42.2254ZM128.144 42.0625C128.045 42.0625 127.996 42.0132 127.996 41.9147V35.0809C127.996 34.9823 128.045 34.933 128.144 34.9332H129.505C129.603 34.9332 129.652 34.9824 129.653 35.0807V41.9147C129.653 42.0132 129.603 42.0624 129.505 42.0622L128.144 42.0625ZM128.144 33.5867C128.045 33.5869 127.996 33.5376 127.996 33.4388V32.1523C127.996 32.0535 128.045 32.0041 128.144 32.0041H129.505C129.603 32.0041 129.652 32.0535 129.653 32.1523V33.4388C129.653 33.5376 129.603 33.5869 129.505 33.5867H128.144ZM123.74 42.0625C123.642 42.0625 123.592 42.0132 123.592 41.9147V36.3089C123.592 36.2496 123.563 36.2199 123.504 36.2197H123.031C122.932 36.2197 122.883 36.1704 122.883 36.072V35.0809C122.883 34.9823 122.932 34.933 123.031 34.9332H123.504C123.563 34.9332 123.592 34.9036 123.592 34.8442V34.3856C123.592 33.5476 123.792 32.941 124.192 32.566C124.591 32.1914 125.18 32.0041 125.959 32.0041H126.61C126.709 32.0041 126.758 32.0535 126.758 32.1523V33.3353C126.758 33.4341 126.709 33.4834 126.61 33.4833H126.151C125.964 33.4833 125.811 33.4958 125.693 33.5208C125.575 33.5452 125.483 33.5921 125.419 33.6612C125.355 33.7299 125.311 33.8185 125.286 33.9272C125.261 34.0355 125.249 34.1785 125.249 34.3561V34.8442C125.249 34.9036 125.279 34.9332 125.338 34.9332H126.61C126.709 34.9332 126.758 34.9824 126.758 35.0807V36.072C126.758 36.1703 126.709 36.2194 126.61 36.2194H125.338C125.279 36.2194 125.249 36.2493 125.249 36.3089V41.9147C125.249 42.0132 125.2 42.0624 125.101 42.0622L123.74 42.0625ZM118.855 42.0625C118.756 42.0625 118.707 42.0132 118.707 41.9147V36.3089C118.707 36.2496 118.677 36.2199 118.618 36.2197H118.145C118.046 36.2197 117.997 36.1704 117.997 36.072V35.0809C117.997 34.9823 118.046 34.933 118.145 34.9332H118.618C118.677 34.9332 118.707 34.9036 118.707 34.8442V34.3856C118.707 33.5476 118.906 32.941 119.306 32.566C119.705 32.1914 120.294 32.0041 121.073 32.0041H121.724C121.823 32.0041 121.872 32.0535 121.872 32.1523V33.3353C121.872 33.4341 121.823 33.4834 121.724 33.4833H121.266C121.078 33.4833 120.925 33.4958 120.807 33.5208C120.689 33.5452 120.598 33.5921 120.534 33.6612C120.469 33.7299 120.425 33.8185 120.401 33.9272C120.376 34.0355 120.364 34.1785 120.364 34.3561V34.8442C120.363 34.9036 120.393 34.9332 120.452 34.9332H121.724C121.823 34.9332 121.872 34.9824 121.872 35.0807V36.072C121.872 36.1703 121.823 36.2194 121.724 36.2194H120.452C120.393 36.2194 120.363 36.2493 120.364 36.3089V41.9147C120.364 42.0132 120.314 42.0624 120.215 42.0622L118.855 42.0625ZM112.907 40.6428C113.41 40.6428 113.814 40.5271 114.12 40.2958C114.425 40.0644 114.647 39.7421 114.786 39.329C114.815 39.2404 114.84 39.1371 114.86 39.0191C114.879 38.901 114.896 38.7533 114.911 38.5762C114.926 38.3992 114.938 38.1851 114.948 37.9338C114.958 37.683 114.963 37.3805 114.963 37.0263C114.963 36.672 114.958 36.3692 114.948 36.118C114.94 35.9039 114.928 35.6899 114.911 35.4763C114.9 35.328 114.882 35.1802 114.86 35.0332C114.843 34.9281 114.818 34.8244 114.786 34.723C114.647 34.3101 114.425 33.9879 114.12 33.7565C113.814 33.525 113.41 33.4094 112.907 33.4095C112.404 33.4097 112.002 33.5253 111.701 33.7565C111.4 33.9879 111.181 34.3101 111.043 34.723C111.014 34.812 110.986 34.9153 110.962 35.0329C110.933 35.1794 110.913 35.3275 110.903 35.4763C110.886 35.6899 110.876 35.9038 110.873 36.118C110.868 36.3694 110.866 36.6722 110.866 37.0263C110.866 37.3804 110.868 37.683 110.873 37.9341C110.878 38.185 110.888 38.3991 110.903 38.5762C110.917 38.7533 110.937 38.901 110.962 39.0194C110.986 39.137 111.014 39.2402 111.043 39.329C111.181 39.7423 111.4 40.0645 111.701 40.2958C112.002 40.5273 112.404 40.6428 112.907 40.6428ZM112.907 42.2257C112.039 42.2257 111.295 42.0207 110.673 41.6108C110.052 41.2009 109.613 40.596 109.357 39.7962C109.308 39.6402 109.266 39.4821 109.231 39.3223C109.193 39.1413 109.166 38.9583 109.15 38.7742C109.128 38.5304 109.113 38.286 109.105 38.0413C109.095 37.7597 109.09 37.4214 109.09 37.0265C109.09 36.6316 109.095 36.2933 109.105 36.0115C109.115 35.73 109.13 35.4857 109.15 35.2784C109.169 35.0711 109.196 34.8884 109.231 34.7303C109.265 34.5725 109.307 34.4145 109.357 34.2564C109.613 33.4565 110.052 32.8516 110.673 32.4417C111.295 32.0322 112.039 31.8272 112.907 31.8269C113.785 31.827 114.534 32.032 115.155 32.4417C115.776 32.8515 116.215 33.4564 116.472 34.2564C116.521 34.4145 116.563 34.5725 116.597 34.7303C116.632 34.8885 116.659 35.0713 116.679 35.2784C116.698 35.4858 116.713 35.7302 116.723 36.0115C116.734 36.3496 116.739 36.688 116.738 37.0263C116.738 37.4217 116.733 37.7599 116.723 38.0411C116.715 38.2858 116.701 38.5303 116.679 38.7742C116.659 38.9814 116.632 39.1642 116.597 39.3223C116.562 39.4821 116.52 39.6402 116.472 39.7964C116.215 40.5963 115.777 41.2011 115.155 41.6111C114.534 42.021 113.784 42.2258 112.907 42.2257ZM100.615 40.8797C101.128 40.8797 101.519 40.7811 101.791 40.5838C102.062 40.3865 102.198 40.0807 102.198 39.6665V39.1191C102.198 39.0603 102.168 39.0308 102.109 39.0308H100.926C100.393 39.0307 100.003 39.107 99.7569 39.2598C99.5103 39.4128 99.387 39.6569 99.387 39.9921C99.387 40.5837 99.7963 40.8797 100.615 40.8797ZM102.375 42.0625C102.276 42.0625 102.227 42.0132 102.227 41.9147V41.3971H102.212C102.045 41.6436 101.793 41.8433 101.458 41.9962C101.123 42.1489 100.704 42.2253 100.201 42.2254C99.8878 42.2274 99.5761 42.1827 99.2763 42.0927C98.9853 42.0047 98.7314 41.8721 98.5144 41.6948C98.2975 41.5182 98.1249 41.2945 97.9968 41.0237C97.8685 40.7537 97.8043 40.4319 97.8043 40.0581C97.8043 39.2816 98.0584 38.7117 98.5664 38.3482C99.0738 37.9847 99.7714 37.8028 100.659 37.8026H102.109C102.168 37.8026 102.198 37.7728 102.198 37.7131V37.3699C102.197 36.9517 102.084 36.6481 101.857 36.4591C101.631 36.2702 101.216 36.1757 100.615 36.1757C100.211 36.1757 99.8802 36.2224 99.624 36.3157C99.3672 36.4098 99.1551 36.5259 98.9878 36.6638C98.8989 36.7327 98.8299 36.7227 98.7809 36.6339L98.2335 35.6578C98.1842 35.5793 98.1939 35.5152 98.2627 35.4654C98.5489 35.2586 98.8941 35.091 99.2985 34.9627C99.7029 34.8344 100.201 34.7702 100.792 34.7702C101.877 34.7702 102.644 34.9675 103.092 35.3621C103.541 35.7567 103.766 36.3878 103.766 37.2555V41.9145C103.766 42.0133 103.716 42.0626 103.618 42.0625H102.375ZM94.8402 42.0625C94.7416 42.0625 94.6923 42.0132 94.6925 41.9147V35.0809C94.6925 34.9823 94.7417 34.933 94.8402 34.9332H96.2012C96.2997 34.9332 96.3489 34.9824 96.3489 35.0807V41.9147C96.3489 42.0132 96.2997 42.0624 96.2012 42.0622L94.8402 42.0625ZM94.8402 33.5867C94.7416 33.5869 94.6923 33.5376 94.6925 33.4388V32.1523C94.6925 32.0535 94.7417 32.0041 94.8402 32.0041H96.2012C96.2997 32.0041 96.3489 32.0535 96.3489 32.1523V33.4388C96.3489 33.5376 96.2997 33.5869 96.2012 33.5867H94.8402ZM89.7385 40.7462C90.4286 40.7462 90.8723 40.4405 91.0697 39.8289C91.1189 39.6615 91.1558 39.479 91.1805 39.2815C91.2053 39.0844 91.2177 38.8232 91.2177 38.498C91.2177 38.1727 91.2053 37.9113 91.1805 37.7139C91.1582 37.5288 91.1212 37.3457 91.0697 37.1665C90.8723 36.5553 90.4286 36.2497 89.7385 36.2497C89.0578 36.2497 88.619 36.5553 88.4221 37.1665C88.3705 37.3457 88.3334 37.5287 88.3111 37.7139C88.2862 37.9112 88.2738 38.1725 88.2738 38.498C88.2738 38.8231 88.2862 39.0843 88.3111 39.2818C88.3356 39.4791 88.3726 39.6616 88.4221 39.8292C88.619 40.4406 89.0578 40.7462 89.7385 40.7462ZM91.3657 42.0625C91.267 42.0625 91.2177 42.0132 91.2177 41.9147V41.3824H91.203C91.035 41.629 90.7982 41.8311 90.4926 41.9887C90.187 42.1464 89.7927 42.2253 89.3096 42.2254C88.6979 42.2254 88.1802 42.0825 87.7564 41.7965C87.3322 41.5106 87.0265 41.0815 86.8394 40.5093C86.7503 40.232 86.686 39.9474 86.6472 39.6587C86.6075 39.3681 86.5877 38.9812 86.5877 38.498C86.5877 38.0147 86.6075 37.6276 86.6472 37.3367C86.6864 37.046 86.7507 36.7618 86.8394 36.4864C87.0265 35.9147 87.3322 35.4856 87.7564 35.1992C88.1802 34.9135 88.6979 34.7707 89.3096 34.7705C89.7927 34.7705 90.187 34.8494 90.4926 35.0072C90.7982 35.165 91.035 35.3671 91.203 35.6136H91.2177V32.1523C91.2177 32.0535 91.267 32.0041 91.3657 32.0041H92.7264C92.8249 32.0041 92.8742 32.0535 92.8744 32.1523V41.9147C92.8744 42.0132 92.8251 42.0624 92.7264 42.0622L91.3657 42.0625ZM83.7065 37.7131C83.7065 37.4845 83.677 37.2804 83.6178 37.1008C83.519 36.8122 83.3464 36.5859 83.0999 36.4219C82.8535 36.2579 82.5626 36.1759 82.2273 36.1757C81.8821 36.1757 81.5862 36.2578 81.3395 36.4219C81.0929 36.586 80.9205 36.8124 80.8221 37.101C80.763 37.2805 80.7334 37.4845 80.7334 37.7131C80.7334 37.7726 80.763 37.8024 80.8221 37.8026H83.6178C83.677 37.8026 83.7065 37.7728 83.7065 37.7131ZM82.2863 42.2254C81.527 42.2254 80.8926 42.0503 80.3832 41.7C79.8738 41.3501 79.5213 40.8646 79.3257 40.2436C79.2425 39.9953 79.1811 39.7402 79.1423 39.4813C79.0986 39.2005 79.0768 38.8727 79.0768 38.498C79.0768 38.1232 79.0963 37.7929 79.1352 37.5072C79.1741 37.2209 79.2327 36.9645 79.3112 36.7378C79.5068 36.1163 79.8618 35.6331 80.376 35.2881C80.8902 34.9432 81.5024 34.7707 82.2126 34.7705C82.9521 34.7705 83.5758 34.9455 84.0837 35.2954C84.5913 35.6456 84.9437 36.1264 85.141 36.7376C85.1806 36.8659 85.2151 36.9941 85.2445 37.1222C85.2743 37.2506 85.2991 37.3984 85.319 37.5657C85.3383 37.7338 85.353 37.9237 85.3632 38.1353C85.373 38.3476 85.3779 38.5967 85.3779 38.8826C85.3779 38.9811 85.3237 39.0304 85.2152 39.0306H80.8221C80.763 39.0306 80.7334 39.0601 80.7334 39.1191C80.7334 39.2276 80.7432 39.3262 80.7629 39.415C80.7826 39.5038 80.8072 39.5876 80.8369 39.6662C81.0833 40.3861 81.6158 40.746 82.4343 40.746C82.8386 40.7462 83.1739 40.682 83.4403 40.5535C83.7065 40.4259 83.9283 40.2633 84.106 40.0656C84.1848 39.987 84.2586 39.9772 84.3274 40.0364L85.2005 40.8052C85.2693 40.8646 85.2742 40.9335 85.2152 41.0122C84.9095 41.3671 84.5101 41.6581 84.0172 41.8853C83.524 42.1119 82.947 42.2254 82.2863 42.2254ZM68.5375 32.152C68.5375 32.0532 68.5868 32.0038 68.6854 32.0038H70.0019C70.1301 32.0038 70.2139 32.0532 70.2534 32.152L73.0193 38.35H73.0785L75.8002 32.152C75.8394 32.0532 75.9232 32.0038 76.0516 32.0038H77.3534C77.4519 32.0038 77.5012 32.0532 77.5013 32.152V41.9145C77.5013 42.013 77.452 42.0621 77.3534 42.062H76.0664C75.9679 42.0621 75.9186 42.013 75.9184 41.9145V35.7608H75.8594L73.7294 40.4948C73.6701 40.6228 73.5764 40.6868 73.4484 40.6868H72.5901C72.4621 40.6868 72.3685 40.6228 72.3092 40.4948L70.1794 35.7608H70.1201V41.9145C70.12 42.013 70.0706 42.0621 69.9722 42.062H68.6854C68.5868 42.0621 68.5375 42.013 68.5375 41.9145V32.152ZM61.3485 42.0622C61.25 42.0622 61.2008 42.013 61.2008 41.9145V35.0807C61.2008 34.982 61.25 34.9328 61.3485 34.933H62.7094C62.8079 34.933 62.8572 34.9821 62.8574 35.0804V41.9145C62.8574 42.013 62.8081 42.0621 62.7094 42.062L61.3485 42.0622ZM61.3485 33.5865C61.25 33.5867 61.2008 33.5373 61.2008 33.4385V32.152C61.2008 32.0532 61.25 32.0038 61.3485 32.0038H62.7094C62.8079 32.0038 62.8572 32.0532 62.8574 32.152V33.4385C62.8574 33.5373 62.8081 33.5867 62.7094 33.5865H61.3485ZM56.5252 40.746C57.2056 40.746 57.6443 40.4402 57.8415 39.8287C57.8908 39.6612 57.9279 39.4788 57.9527 39.2813C57.9772 39.0842 57.9894 38.823 57.9892 38.4977C57.9892 38.1724 57.977 37.9111 57.9527 37.7136C57.9303 37.5285 57.8931 37.3454 57.8415 37.1662C57.6443 36.555 57.2056 36.2494 56.5252 36.2494C55.8349 36.2494 55.3911 36.555 55.194 37.1662C55.1421 37.3453 55.105 37.5284 55.083 37.7136C55.0582 37.9109 55.0458 38.1723 55.0458 38.4977C55.0458 38.8228 55.0582 39.0841 55.083 39.2815C55.1074 39.4788 55.1444 39.6613 55.194 39.8289C55.3911 40.4403 55.8349 40.746 56.5252 40.746ZM56.9542 42.2252C56.4709 42.225 56.0763 42.1461 55.7704 41.9885C55.4648 41.8308 55.2283 41.6287 55.0608 41.3821H55.0458V41.9145C55.0458 42.013 54.9966 42.0621 54.8981 42.062H53.5371C53.4386 42.0621 53.3894 42.013 53.3894 41.9145V32.152C53.3894 32.0532 53.4386 32.0038 53.5371 32.0038H54.8981C54.9966 32.0038 55.0458 32.0532 55.0458 32.152V35.6133H55.0608C55.2283 35.367 55.4648 35.1649 55.7704 35.0069C56.0762 34.8491 56.4708 34.7702 56.9542 34.7702C57.5652 34.7704 58.0828 34.9133 58.5071 35.1989C58.9312 35.4852 59.2368 35.9143 59.4241 36.4861C59.513 36.7621 59.5771 37.0455 59.6166 37.3365C59.6559 37.6274 59.6757 38.0145 59.6758 38.4977C59.6757 38.9808 59.6559 39.3677 59.6166 39.6585C59.5777 39.9472 59.5133 40.2319 59.4241 40.5093C59.2368 41.0813 58.9312 41.5103 58.5071 41.7963C58.0828 42.082 57.5652 42.225 56.9542 42.2252ZM48.4547 40.8792C48.9672 40.8792 49.3592 40.7806 49.6307 40.5833C49.9018 40.386 50.0374 40.0802 50.0374 39.666V39.1186C50.0374 39.0598 50.0078 39.0303 49.9486 39.0303H48.7654C48.2327 39.0302 47.8431 39.1065 47.5966 39.2593C47.3502 39.4123 47.2269 39.6564 47.2269 39.9916C47.2268 40.5832 47.636 40.8792 48.4547 40.8792ZM50.2148 42.062C50.116 42.062 50.0667 42.0127 50.0668 41.9142V41.3966H50.0521C49.8843 41.6431 49.6329 41.8428 49.2978 41.9957C48.9623 42.1484 48.5432 42.2248 48.0405 42.2249C47.7151 42.2249 47.4069 42.1807 47.116 42.0922C46.8249 42.0042 46.5709 41.8716 46.3541 41.6943C46.137 41.5177 45.9644 41.294 45.8362 41.0232C45.7083 40.7532 45.6443 40.4314 45.6443 40.0576C45.6441 39.2811 45.8981 38.7112 46.4061 38.3477C46.9138 37.9842 47.6114 37.8023 48.4989 37.8021H49.9486C50.0078 37.8021 50.0374 37.7723 50.0374 37.7126V37.3694C50.0374 36.9512 49.924 36.6476 49.6972 36.4586C49.4701 36.2697 49.0559 36.1752 48.4547 36.1752C48.0503 36.1752 47.7199 36.2219 47.4636 36.3152C47.207 36.4093 46.995 36.5254 46.8275 36.6633C46.7387 36.7322 46.6696 36.7222 46.6203 36.6334L46.0732 35.6573C46.0237 35.5788 46.0335 35.5147 46.1027 35.4649C46.3886 35.2581 46.7338 35.0905 47.1382 34.9622C47.5426 34.8339 48.0406 34.7697 48.6321 34.7697C49.7169 34.7697 50.4836 34.967 50.9322 35.3616C51.3807 35.7562 51.605 36.3873 51.605 37.255V41.914C51.605 42.0128 51.5558 42.0621 51.4573 42.062H50.2148ZM42.7599 42.062C42.6612 42.062 42.6119 42.0127 42.6119 41.9142V37.8021C42.6119 37.3389 42.4985 36.9641 42.2717 36.6778C42.0449 36.3921 41.7097 36.2492 41.2659 36.2492C40.8319 36.2492 40.4966 36.3921 40.2602 36.6778C40.0235 36.9641 39.9051 37.3389 39.905 37.8021V41.9142C39.905 42.0127 39.8557 42.0619 39.7573 42.0617H38.3963C38.2977 42.0619 38.2484 42.0127 38.2486 41.9142V32.1518C38.2486 32.053 38.2978 32.0036 38.3963 32.0036H39.7573C39.8557 32.0036 39.905 32.053 39.905 32.1518V35.5983H39.9197C40.0775 35.3714 40.3117 35.1766 40.6223 35.0139C40.9331 34.8513 41.3251 34.77 41.7983 34.77C42.1829 34.77 42.5256 34.8365 42.8264 34.9695C43.1208 35.0986 43.3852 35.2875 43.603 35.5241C43.8199 35.7609 43.985 36.0396 44.0984 36.3602C44.2118 36.6804 44.2686 37.0329 44.2686 37.4174V41.914C44.2686 42.0128 44.2193 42.0621 44.1208 42.062H42.7599ZM30.9709 40.3911C30.9709 40.4499 31.0004 40.4793 31.0596 40.4793H32.5535C33.1157 40.4795 33.5669 40.3811 33.907 40.1844C34.2471 39.9876 34.4911 39.6626 34.6391 39.2096C34.6729 39.1266 34.6977 39.0403 34.7131 38.9521C34.7329 38.8488 34.7501 38.7158 34.7648 38.5532C34.7798 38.3909 34.7922 38.1867 34.802 37.9406C34.8127 37.6358 34.8176 37.3308 34.8168 37.0258C34.8166 36.6617 34.8117 36.3567 34.802 36.1107C34.7946 35.9038 34.7822 35.6971 34.7648 35.4908C34.7547 35.3571 34.7374 35.224 34.7131 35.0922C34.6973 35.0062 34.6725 34.9221 34.6391 34.8412C34.4913 34.3885 34.2473 34.0637 33.907 33.8669C33.5669 33.6703 33.1157 33.5719 32.5535 33.5717H31.0596C31.0004 33.5717 30.9709 33.6012 30.9709 33.6602V40.3911ZM29.2255 32.1368C29.2255 32.0385 29.2749 31.9892 29.3737 31.9891H32.9754C34.7342 31.9891 35.8557 32.7347 36.3397 34.2259C36.3792 34.3542 36.4137 34.49 36.4432 34.6333C36.4779 34.8072 36.5052 34.9825 36.5249 35.1587C36.5496 35.3666 36.5669 35.6211 36.5769 35.9222C36.5868 36.2235 36.5917 36.5914 36.5917 37.0258C36.5917 37.46 36.5868 37.8279 36.5769 38.1293C36.5701 38.3843 36.5528 38.6388 36.5249 38.8924C36.5003 39.0997 36.473 39.2749 36.4432 39.418C36.4151 39.5554 36.3806 39.6913 36.3397 39.8254C35.8557 41.3168 34.7342 42.0623 32.9754 42.062H29.3737C29.2749 42.062 29.2255 42.0127 29.2255 41.9142V32.1368ZM22.0365 42.062C21.9378 42.062 21.8885 42.0127 21.8885 41.9142V41.3966H21.8738C21.6739 41.6449 21.4246 41.8489 21.1417 41.9957C20.8506 42.1484 20.4783 42.2248 20.0249 42.2249C19.6403 42.2249 19.2976 42.1584 18.9969 42.0255C18.7035 41.8979 18.4411 41.7085 18.2275 41.4703C18.0154 41.2341 17.8527 40.9555 17.7394 40.6348C17.6261 40.3143 17.5694 39.9618 17.5694 39.5772V35.0804C17.5694 34.9818 17.6187 34.9325 17.7171 34.9327H19.0781C19.1766 34.9327 19.2259 34.9819 19.2261 35.0802V39.1928C19.2261 39.6561 19.3345 40.0307 19.5515 40.3168C19.7683 40.6028 20.1035 40.7457 20.5573 40.7457C20.9812 40.7457 21.3091 40.6028 21.5411 40.3168C21.7727 40.0309 21.8885 39.661 21.8885 39.2071V35.0804C21.8885 34.9818 21.9378 34.9325 22.0365 34.9327H23.3974C23.4959 34.9327 23.5452 34.9819 23.5454 35.0802V41.9142C23.5454 42.0127 23.4961 42.0619 23.3974 42.0617L22.0365 42.062ZM12.9766 40.7457C13.657 40.7457 14.0958 40.44 14.2931 39.8284C14.3424 39.661 14.3794 39.4785 14.4041 39.281C14.4287 39.0839 14.4411 38.8227 14.4411 38.4975C14.4411 38.1722 14.4287 37.9108 14.4041 37.7134C14.3817 37.5282 14.3446 37.3452 14.2931 37.166C14.0958 36.5548 13.657 36.2492 12.9766 36.2492C12.2861 36.2492 11.8424 36.5548 11.6454 37.166C11.5939 37.3452 11.5568 37.5282 11.5344 37.7134C11.5098 37.9107 11.4974 38.172 11.4974 38.4975C11.4974 38.8226 11.5098 39.0838 11.5344 39.2813C11.5589 39.4786 11.5959 39.6611 11.6454 39.8287C11.8424 40.4401 12.2861 40.7457 12.9766 40.7457ZM13.4055 42.2249C12.9223 42.2248 12.5279 42.1459 12.2223 41.9882C11.9167 41.8306 11.68 41.6285 11.5122 41.3819H11.4974V41.9142C11.4974 42.0127 11.4481 42.0619 11.3495 42.0617H9.98875C9.89011 42.0619 9.84079 42.0127 9.84079 41.9142V32.1518C9.84079 32.053 9.89011 32.0036 9.98875 32.0036H11.3495C11.4481 32.0036 11.4974 32.053 11.4974 32.1518V35.6131H11.5122C11.6798 35.3668 11.9165 35.1647 12.2223 35.0067C12.5279 34.8489 12.9223 34.77 13.4055 34.77C14.0169 34.7702 14.5346 34.913 14.9587 35.1987C15.3826 35.4849 15.6883 35.914 15.8758 36.4859C15.9644 36.7618 16.0286 37.0453 16.0682 37.3362C16.1076 37.6271 16.1272 38.0142 16.1272 38.4975C16.1272 38.9807 16.1076 39.3676 16.0682 39.6582C16.029 39.9469 15.9646 40.2316 15.8758 40.509C15.6883 41.0811 15.3826 41.5101 14.9587 41.796C14.5346 42.0818 14.0169 42.2248 13.4055 42.2249ZM5.65766 38.4082L4.32619 34.5038H4.28195L2.93598 38.4085L5.65766 38.4082ZM3.45362 32.1518C3.48312 32.053 3.54727 32.0036 3.64608 32.0036H5.0068C5.10528 32.0036 5.16935 32.053 5.19901 32.1518L8.60129 41.9142C8.63079 42.0127 8.59621 42.0619 8.49757 42.0617H7.04812C6.94947 42.0619 6.88532 42.0127 6.85566 41.9142L6.19005 39.9619H2.40334L1.73773 41.914C1.70807 42.0128 1.644 42.0621 1.54552 42.062H0.110825C0.0120129 42.062 -0.0225632 42.0127 0.00709725 41.9142L3.45362 32.1518ZM16.4461 22.2079C16.2205 22.4878 15.8674 22.6278 15.3866 22.6278C14.9157 22.6278 14.5675 22.4903 14.3421 22.2154C14.1166 21.9404 14.0038 21.4887 14.0037 20.8602C14.0037 20.2808 14.1165 19.8388 14.3421 19.5342C14.5675 19.2299 14.9157 19.0777 15.3866 19.0775C16.3186 19.0777 16.7846 19.6719 16.7846 20.8602C16.7846 21.4789 16.6718 21.9281 16.4461 22.2079ZM17.5737 18.3382C17.3021 18.0819 16.9784 17.8944 16.6026 17.7758C16.2267 17.6575 15.8214 17.5983 15.3866 17.5983C14.9519 17.5983 14.5515 17.655 14.1854 17.7683C13.8297 17.8761 13.5028 18.0627 13.2291 18.3142C12.9573 18.5646 12.7448 18.8889 12.5915 19.287C12.4382 19.6851 12.3566 20.1694 12.3468 20.7399V20.9611C12.3468 21.03 12.3518 21.1037 12.3618 21.1823C12.3618 21.4378 12.3322 21.6516 12.273 21.8237C12.2137 21.9958 12.1397 22.1336 12.0511 22.2369C11.9623 22.3402 11.8637 22.4138 11.7554 22.4578C11.6523 22.5012 11.5417 22.5238 11.43 22.5243H9.36538C9.08194 22.5245 8.80783 22.4924 8.54306 22.4281C8.26923 22.3616 7.99859 22.2826 7.73198 22.1914C7.44662 22.0942 7.16528 21.9855 6.88865 21.8657C6.59072 21.7379 6.28987 21.6171 5.98634 21.5033C5.89769 21.4738 5.83854 21.5084 5.80888 21.607L5.40946 22.7768C5.37997 22.8662 5.40963 22.9256 5.49845 22.955C5.93383 23.1187 6.37016 23.2799 6.80742 23.4386C7.17718 23.5723 7.48286 23.7011 7.72448 23.825C7.96593 23.9488 8.14339 24.0778 8.25687 24.212C8.37018 24.3454 8.42691 24.5063 8.42708 24.6946C8.42708 24.9222 8.3186 25.1105 8.10165 25.2595C7.88469 25.4081 7.48036 25.4824 6.88865 25.4824H4.00426C3.71832 25.4824 3.43729 25.4504 3.16119 25.3865C2.88508 25.3225 2.63855 25.2165 2.42159 25.0685C2.20464 24.9206 2.02959 24.7233 1.89645 24.4767C1.76331 24.23 1.69674 23.9194 1.69674 23.5446C1.69674 23.1605 1.76831 22.7859 1.91145 22.4208C2.05392 22.0559 2.20922 21.7354 2.37735 21.4593C2.42651 21.3803 2.41168 21.3161 2.33286 21.2668L1.1641 20.6607C1.07546 20.6014 1.00647 20.6112 0.957148 20.6902C0.819444 20.8843 0.698294 21.0897 0.594974 21.3041C0.354992 21.7968 0.180868 22.3189 0.0770826 22.857C0.0234294 23.1323 -0.00377209 23.4121 -0.00415039 23.6926C-0.00415039 24.7084 0.308451 25.512 0.933653 26.1036C1.55886 26.6951 2.51149 26.991 3.79155 26.9911H7.15935C7.6909 26.9911 8.14131 26.9345 8.51056 26.8212C8.87982 26.7077 9.18017 26.5573 9.41162 26.37C9.64308 26.1827 9.81296 25.9658 9.92127 25.7194C10.0296 25.4729 10.0837 25.2115 10.0837 24.9351C10.0849 24.7461 10.0526 24.5584 9.98825 24.3807C9.92477 24.2077 9.86861 24.0819 9.81979 24.0033H11.3707C11.5087 24.0033 11.6566 23.9934 11.8144 23.9738C11.9712 23.9539 12.1253 23.9161 12.2735 23.8613C12.4271 23.8037 12.5722 23.7257 12.7049 23.6293C12.8489 23.5246 12.9707 23.3924 13.0634 23.2404C13.33 23.5493 13.6608 23.771 14.0559 23.9053C14.451 24.0396 14.8955 24.1067 15.3894 24.1067C15.8436 24.1067 16.2584 24.0476 16.6339 23.9293C17.0089 23.8113 17.3299 23.624 17.5967 23.3674C17.8633 23.1111 18.0706 22.7807 18.2188 22.3761C18.3671 21.972 18.4412 21.4791 18.4412 20.8974C18.4412 20.2957 18.3646 19.7828 18.2113 19.3587C18.058 18.9351 17.8454 18.595 17.5737 18.3382ZM49.4292 13.9451H48.0658C47.9681 13.9451 47.9192 13.9943 47.919 14.0926V21.7417C47.919 22.037 47.862 22.2414 47.7478 22.3548C47.6335 22.4678 47.4524 22.5243 47.2044 22.5243H45.656V16.1639C45.656 16.0651 45.6072 16.0157 45.5096 16.0157H44.1458C44.0482 16.0157 43.9993 16.0651 43.9991 16.1639V22.5243H41.3664C41.2678 22.5243 41.2185 22.5741 41.2185 22.6735V23.854C41.2185 23.9537 41.2678 24.0035 41.3664 24.0035H47.8601C48.4759 24.0035 48.9158 23.8531 49.1798 23.5523C49.4437 23.2516 49.5757 22.7807 49.5757 22.1396V14.0931C49.5757 13.9946 49.5269 13.9453 49.4292 13.9451ZM39.917 22.5243H36.7072C36.6282 22.495 36.5222 22.4386 36.3892 22.3551C36.2559 22.2715 36.1276 22.1561 36.0043 22.0089C35.8812 21.8618 35.7728 21.6826 35.6791 21.4713C35.5855 21.26 35.5386 21.0072 35.5386 20.7129C35.5383 20.2122 35.6739 19.8145 35.9453 19.5199C36.2166 19.225 36.6037 19.0775 37.1066 19.0775C37.7176 19.0777 38.2402 19.3145 38.6745 19.7879C38.7435 19.8669 38.8125 19.8718 38.8814 19.8026L39.6803 18.9743C39.7593 18.9153 39.7741 18.8462 39.7248 18.7669C39.4682 18.4319 39.1131 18.1535 38.6597 17.9315C38.2062 17.7097 37.6538 17.5988 37.0026 17.5986C36.4014 17.5986 35.8962 17.6921 35.4869 17.879C35.0775 18.0657 34.7471 18.3039 34.4959 18.5939C34.2484 18.8761 34.0643 19.208 33.956 19.5674C33.8473 19.9262 33.7931 20.2778 33.7933 20.6222C33.7933 21.0545 33.8573 21.423 33.9855 21.728C34.1134 22.0329 34.2762 22.2984 34.4736 22.5243H29.2835C28.5636 22.5243 28.1594 22.2684 28.0707 21.7565V14.0928C28.0705 13.9944 28.0216 13.9451 27.924 13.9451H26.5605C26.4627 13.9451 26.4138 13.9943 26.4138 14.0926V21.1956C26.4138 21.4414 26.4088 21.6505 26.3988 21.823C26.3888 21.9951 26.3591 22.1329 26.3096 22.2364C26.2598 22.3397 26.1878 22.4135 26.0936 22.4578C25.9995 22.5023 25.868 22.5245 25.6992 22.5243H24.1508V16.1639C24.1508 16.0654 24.102 16.0161 24.0043 16.0159H22.6406C22.5428 16.0159 22.4939 16.0653 22.4939 16.1639V22.5243H19.8612C19.7625 22.5243 19.7132 22.5741 19.7132 22.6738V23.8543C19.7132 23.9538 19.7625 24.0035 19.8612 24.0035H26.1684C26.6209 24.0035 26.9824 23.9488 27.2529 23.8393C27.5233 23.7298 27.7274 23.5355 27.8653 23.2564C28.0415 23.5752 28.2703 23.7793 28.5514 23.8688C28.8323 23.9588 29.1602 24.0037 29.5349 24.0035H39.917C40.0156 24.0035 40.0649 23.9538 40.0649 23.8543V22.6738C40.0649 22.5743 40.0156 22.5245 39.917 22.5243ZM79.4552 16.3856H80.8754C80.9737 16.3856 81.0229 16.3359 81.0231 16.2366V14.9519C81.0229 14.8526 80.9738 14.8029 80.8756 14.8029H79.4552C79.3565 14.8029 79.3072 14.8527 79.3072 14.9522V16.2366C79.3072 16.3361 79.3565 16.3858 79.4552 16.3856ZM122.988 16.3856H124.23C124.329 16.3856 124.378 16.3359 124.378 16.2366V14.9519C124.378 14.8526 124.329 14.8029 124.23 14.8029H122.988C122.889 14.8029 122.84 14.8527 122.84 14.9522V16.2366C122.84 16.3361 122.889 16.3858 122.988 16.3856ZM6.74068 28.0119H5.49845C5.39947 28.0119 5.35006 28.0617 5.35023 28.1614V29.4451C5.35023 29.5448 5.39955 29.5946 5.4982 29.5946H6.74068C6.83916 29.5946 6.8884 29.5448 6.8884 29.4451V28.1614C6.8884 28.0617 6.839 28.0119 6.74068 28.0119ZM121.065 16.3856H122.307C122.406 16.3856 122.455 16.3359 122.455 16.2366V14.9519C122.455 14.8526 122.406 14.8029 122.307 14.8029H121.065C120.966 14.8029 120.917 14.8527 120.917 14.9522V16.2366C120.917 16.3361 120.966 16.3858 121.065 16.3856ZM53.0237 13.9451H51.66C51.5625 13.9451 51.5138 13.9944 51.5138 14.0931V23.8555C51.5138 23.9542 51.5625 24.0035 51.66 24.0035H53.0237C53.1214 24.0035 53.1703 23.9542 53.1704 23.8555V14.0931C53.1703 13.9946 53.1214 13.9453 53.0237 13.9451ZM4.81784 28.0119H3.57535C3.4767 28.0119 3.42738 28.0617 3.42738 28.1614V29.4451C3.42738 29.5448 3.4767 29.5946 3.57535 29.5946H4.81784C4.91632 29.5946 4.96556 29.5448 4.96556 29.4451V28.1614C4.96556 28.0617 4.91632 28.0119 4.81784 28.0119ZM46.3661 27.361H44.8719C44.7636 27.2819 44.6576 27.1711 44.5538 27.0286C44.4504 26.8851 44.3988 26.7149 44.3988 26.518C44.3988 26.3109 44.4628 26.1359 44.5907 25.9931C44.7191 25.8498 44.8966 25.7782 45.1234 25.7784C45.3895 25.7784 45.6262 25.8918 45.8335 26.1186C45.853 26.1386 45.8726 26.1486 45.8925 26.1486C45.9123 26.1486 45.942 26.1287 45.9815 26.0891L46.3659 25.7341C46.4052 25.6946 46.4052 25.6453 46.3659 25.5862C46.2376 25.4184 46.0651 25.2852 45.8485 25.1868C45.6312 25.0881 45.3847 25.0388 45.1089 25.0388C44.8226 25.0388 44.581 25.0831 44.384 25.1718C44.1866 25.2607 44.0239 25.3766 43.8959 25.5194C43.7715 25.6556 43.6781 25.8171 43.6222 25.9928C43.5692 26.1577 43.5417 26.3298 43.5407 26.503C43.5407 26.6708 43.5629 26.8287 43.6072 26.9766C43.6517 27.1243 43.7084 27.2524 43.7772 27.361H43.23C43.1709 27.361 43.1413 27.3955 43.1413 27.4645V27.9969C43.1413 28.0661 43.171 28.1006 43.2303 28.1006H46.3661C46.4251 28.1006 46.4547 28.0661 46.4549 27.9969V27.4645C46.4549 27.3954 46.4254 27.3609 46.3661 27.361ZM102.384 13.9451H101.02C100.923 13.9451 100.874 13.9944 100.874 14.0931V23.8555C100.874 23.9542 100.923 24.0035 101.02 24.0035H102.384C102.482 24.0035 102.531 23.9542 102.531 23.8555V14.0931C102.531 13.9946 102.482 13.9453 102.384 13.9451ZM63.0364 28.0119H61.7939C61.6954 28.0119 61.6462 28.0617 61.6462 28.1614V29.4451C61.6462 29.5448 61.6953 29.5946 61.7936 29.5946H63.0364C63.135 29.5946 63.1843 29.5448 63.1843 29.4451V28.1614C63.1843 28.0617 63.135 28.0119 63.0364 28.0119ZM89.632 22.5243H88.3156C87.8423 22.5243 87.48 22.4114 87.2286 22.1856C86.9771 21.9598 86.8513 21.5376 86.8511 20.9189C86.8511 20.359 86.9769 19.9123 87.2286 19.5787C87.4798 19.2449 87.8274 19.078 88.2713 19.0778C88.7444 19.0778 89.0895 19.2275 89.3066 19.5269C89.5234 19.8267 89.6319 20.2662 89.632 20.8454V22.5243ZM98.7901 17.865H97.4262C97.3282 17.865 97.2793 17.9141 97.2794 18.0123V21.743C97.2793 22.0377 97.2226 22.2418 97.1095 22.3551C96.9957 22.4677 96.8157 22.5241 96.5696 22.5243H91.2887V20.8582C91.2887 20.2583 91.2145 19.7517 91.0662 19.3385C90.9179 18.9259 90.7103 18.5917 90.4434 18.3359C90.1766 18.0803 89.8578 17.8935 89.4871 17.7756C89.1165 17.6577 88.7087 17.5988 88.2636 17.5986C87.8585 17.5988 87.473 17.6604 87.1071 17.7836C86.745 17.9049 86.4154 18.1073 86.1433 18.3752C85.8665 18.6466 85.6441 18.9967 85.4759 19.4255C85.308 19.8545 85.224 20.3698 85.224 20.9711C85.2241 21.5332 85.2908 22.0066 85.4239 22.3913C85.5569 22.7758 85.7466 23.0889 85.9931 23.3306C86.2397 23.5723 86.5429 23.7447 86.9029 23.848C87.2628 23.9517 87.6745 24.0035 88.1379 24.0035H89.632C89.632 24.3089 89.6026 24.5604 89.5436 24.7578C89.4839 24.955 89.4001 25.1079 89.2921 25.2165C89.1833 25.3248 89.0451 25.4012 88.8775 25.4457C88.7098 25.49 88.5126 25.5122 88.2858 25.5122H86.5552C86.4569 25.5122 86.4077 25.5615 86.4077 25.6602V26.8434C86.4077 26.9421 86.4569 26.9914 86.5552 26.9914H88.5525C89.4413 26.9914 90.1195 26.7794 90.5871 26.3555C91.0548 25.9313 91.2887 25.2557 91.2887 24.3289V24.0035H97.2202C97.8362 24.0035 98.2763 23.8531 98.5404 23.5523C98.8042 23.2519 98.9362 22.7811 98.9363 22.1399V18.013C98.9362 17.9144 98.8876 17.865 98.7901 17.865Z" fill="#EEEEEE"/>
<path d="M142.102 22.2078C141.876 22.4878 141.523 22.6277 141.042 22.6277C140.571 22.6277 140.223 22.4903 139.998 22.2153C139.772 21.9404 139.659 21.4886 139.659 20.8601C139.659 20.2807 139.772 19.8387 139.998 19.5341C140.223 19.2299 140.571 19.0776 141.042 19.0775C141.974 19.0776 142.44 19.6718 142.44 20.8601C142.44 21.4788 142.327 21.928 142.102 22.2078ZM143.867 19.3584C143.713 18.9347 143.501 18.5946 143.23 18.3381C142.958 18.0818 142.634 17.8944 142.258 17.7757C141.883 17.6574 141.477 17.5983 141.042 17.5983C140.607 17.5983 140.207 17.6549 139.841 17.7682C139.485 17.8761 139.158 18.0627 138.885 18.3141C138.613 18.5646 138.4 18.8888 138.247 19.2869C138.094 19.685 138.012 20.1693 138.002 20.7399V20.9611C138.002 21.0299 138.007 21.1036 138.017 21.1823C138.017 21.4377 137.988 21.6515 137.928 21.8236C137.869 21.9958 137.795 22.1335 137.707 22.2368C137.618 22.3401 137.519 22.4138 137.411 22.4578C137.308 22.501 137.197 22.5236 137.086 22.5242H132.692C132.327 22.5242 132.034 22.4527 131.812 22.3095C131.59 22.1666 131.479 21.9619 131.479 21.6957V20.4682C131.479 19.8766 131.391 19.4059 131.215 19.056C131.039 18.706 130.797 18.4396 130.49 18.2566C130.182 18.0745 129.814 17.9539 129.385 17.8947C128.922 17.833 128.456 17.7983 127.988 17.791L130.424 14.9363C130.463 14.8574 130.443 14.7882 130.365 14.7289L129.409 13.93C129.339 13.8909 129.275 13.9059 129.216 13.975L126.021 17.7318C125.975 17.7891 125.926 17.8438 125.873 17.8957C125.814 17.9555 125.785 18.0203 125.785 18.0899V19.121C125.784 19.2204 125.834 19.2702 125.932 19.2702H128.314C129.32 19.2702 129.823 19.7022 129.823 20.5662V21.361C129.823 21.5869 129.81 21.7736 129.786 21.9209C129.761 22.0682 129.707 22.1859 129.623 22.274C129.539 22.3622 129.418 22.4259 129.261 22.4653C129.103 22.5046 128.891 22.5242 128.624 22.5242H124.956L124.948 22.5247L124.941 22.5242H124.69C124.315 22.5242 124.017 22.4456 123.795 22.2883C123.573 22.1312 123.462 21.905 123.462 21.6099V18.0124C123.462 17.9141 123.413 17.865 123.316 17.865H122.055C121.996 17.865 121.94 17.8748 121.886 17.8945C121.832 17.9143 121.805 17.9536 121.806 18.0124V21.0793C121.806 21.3446 121.801 21.5683 121.791 21.7504C121.781 21.932 121.754 22.0795 121.709 22.1928C121.665 22.3058 121.596 22.3892 121.502 22.443C121.409 22.4972 121.273 22.5242 121.096 22.5242H119.882C119.518 22.5244 119.227 22.4507 119.01 22.303C118.793 22.1556 118.675 21.9393 118.655 21.6542V18.0124C118.655 17.9141 118.606 17.865 118.507 17.865H117.146C117.048 17.865 116.998 17.9141 116.998 18.0124V21.2418C116.998 21.4777 116.991 21.6793 116.976 21.8464C116.961 22.0132 116.929 22.1459 116.88 22.2446C116.835 22.3384 116.759 22.4138 116.665 22.458C116.572 22.5025 116.441 22.5247 116.273 22.5245H110.149C109.903 22.5245 109.723 22.4678 109.61 22.3543C109.496 22.241 109.44 22.0363 109.44 21.7402V18.945C109.44 18.8464 109.39 18.7971 109.291 18.7973H107.931C107.832 18.7973 107.783 18.8464 107.783 18.9447V22.1251C107.783 22.7699 107.916 23.2442 108.182 23.5478C108.448 23.8519 108.892 24.0039 109.514 24.0037H116.747C117.21 24.0037 117.578 23.9464 117.849 23.832C118.12 23.7172 118.324 23.5204 118.463 23.2416C118.63 23.5604 118.857 23.767 119.143 23.8615C119.429 23.9564 119.759 24.0039 120.134 24.0037H121.51C121.98 24.0037 122.355 23.9489 122.634 23.8392C122.913 23.7297 123.12 23.5305 123.257 23.2413C123.423 23.5604 123.65 23.7672 123.935 23.8617C124.222 23.9564 124.557 24.0037 124.941 24.0037L124.949 24.0032L124.956 24.0037H129.305C129.767 24.0037 130.15 23.9415 130.453 23.817C130.756 23.6923 130.991 23.4707 131.157 23.1521C131.323 23.5009 131.559 23.73 131.864 23.8395C132.169 23.9489 132.529 24.0037 132.944 24.0037H137.026C137.164 24.0037 137.312 23.9937 137.47 23.9737C137.627 23.9538 137.781 23.9161 137.929 23.8612C138.083 23.8037 138.228 23.7258 138.36 23.6295C138.504 23.5248 138.626 23.3926 138.719 23.2406C138.986 23.5495 139.316 23.7712 139.712 23.9055C140.107 24.0398 140.551 24.1069 141.045 24.1069C141.499 24.1069 141.914 24.0478 142.29 23.9295C142.664 23.8115 142.985 23.6242 143.252 23.3676C143.519 23.1113 143.726 22.7809 143.875 22.3763C144.023 21.9722 144.097 21.4793 144.097 20.8976C144.097 20.2959 144.02 19.7825 143.867 19.3584ZM113.907 25.2604H112.487C112.388 25.2604 112.339 25.3102 112.339 25.4099V26.6939C112.339 26.7934 112.388 26.8432 112.487 26.8433H113.907C114.005 26.8433 114.055 26.7935 114.055 26.6939V25.4099C114.055 25.3102 114.005 25.2604 113.907 25.2604ZM103.242 12.4511H101.748C101.639 12.3821 101.533 12.2761 101.43 12.1329C101.326 11.9903 101.275 11.8202 101.275 11.6228C101.275 11.4058 101.339 11.2258 101.467 11.0826C101.595 10.9398 101.772 10.8684 101.999 10.8684C102.133 10.8676 102.266 10.9006 102.384 10.9644C102.502 11.0289 102.611 11.1103 102.709 11.2086C102.749 11.2481 102.798 11.2431 102.857 11.1936L103.242 10.8237C103.271 10.7942 103.271 10.7499 103.242 10.6907C103.113 10.5233 102.941 10.3876 102.724 10.2838C102.507 10.1805 102.26 10.1288 101.985 10.1288C101.698 10.1288 101.457 10.1757 101.26 10.2693C101.062 10.3631 100.9 10.4814 100.772 10.624C100.647 10.7602 100.554 10.9218 100.498 11.0976C100.445 11.2625 100.417 11.4344 100.416 11.6075C100.416 11.7757 100.439 11.9311 100.483 12.0739C100.527 12.2169 100.584 12.3426 100.653 12.4511H100.106C100.047 12.4511 100.017 12.4856 100.017 12.5546V13.102C100.017 13.171 100.047 13.2055 100.106 13.2055H103.242C103.301 13.2055 103.33 13.171 103.33 13.102V12.5546C103.33 12.4856 103.301 12.4511 103.242 12.4511ZM64.9605 28.0118H63.7183C63.6196 28.0118 63.5703 28.0617 63.5703 28.1613V29.445C63.5703 29.5447 63.6196 29.5945 63.718 29.5945H64.9605C65.0592 29.5945 65.1085 29.5447 65.1085 29.445V28.1613C65.1085 28.0617 65.0592 28.0118 64.9605 28.0118ZM72.1345 25.2309H70.7148C70.616 25.2309 70.5667 25.2808 70.5668 25.3804V26.6641C70.5668 26.7639 70.6161 26.8138 70.7146 26.8136H72.1345C72.233 26.8136 72.2823 26.7638 72.2825 26.6641V25.3804C72.2825 25.2808 72.2332 25.2309 72.1345 25.2309Z" fill="#EEEEEE"/>
<path d="M81.9102 21.8982C81.8602 22.0995 81.7637 22.2468 81.6207 22.3401C81.4774 22.4334 81.2747 22.4875 81.0126 22.5025C80.7503 22.517 80.4116 22.5242 79.9966 22.524H76.7622C76.7822 22.4264 76.7972 22.3233 76.8072 22.2149C76.8167 22.1072 76.8216 21.9942 76.8217 21.8759V19.8728C77.2373 19.6769 77.712 19.4953 78.2459 19.3282C78.7741 19.1623 79.3245 19.0778 79.8781 19.0778C80.293 19.0778 80.6341 19.122 80.9014 19.2105C81.1683 19.2988 81.3834 19.4264 81.5467 19.5932C81.7097 19.7605 81.8233 19.9667 81.8874 20.2118C81.9521 20.4572 81.9843 20.7372 81.9841 21.0516C81.984 21.4149 81.9593 21.697 81.9102 21.8982ZM82.8919 18.5599C82.6003 18.2544 82.2273 18.0178 81.7727 17.85C81.3184 17.6824 80.7651 17.5985 80.1125 17.5983C79.5093 17.5985 78.9288 17.6799 78.3709 17.8425C77.8122 18.0052 77.2959 18.1999 76.822 18.4269V14.0931C76.8218 13.9944 76.7729 13.9451 76.6753 13.9451H75.312C75.2141 13.9451 75.1652 13.9943 75.1653 14.0928V20.6489C75.1653 21.033 75.1579 21.3455 75.1431 21.5865C75.1281 21.8278 75.096 22.0197 75.0468 22.1624C74.9977 22.3053 74.9236 22.4014 74.8246 22.4506C74.7262 22.4997 74.5932 22.5242 74.4257 22.524H73.4644C73.0895 22.524 72.7911 22.4455 72.5691 22.2883C72.3475 22.1312 72.2367 21.9051 72.2367 21.61V18.0122C72.2367 17.9139 72.1877 17.8648 72.0897 17.8648H70.7265C70.6285 17.8648 70.5796 17.9139 70.5798 18.0122V21.1381C70.5794 21.3937 70.5744 21.61 70.5648 21.7869C70.5548 21.9644 70.528 22.1061 70.4835 22.2144C70.4439 22.317 70.3675 22.4012 70.2691 22.4506C70.1706 22.4997 70.0376 22.5242 69.8699 22.524H67.5834C67.3065 22.5247 67.0304 22.4925 66.7611 22.4281C66.4872 22.3616 66.2164 22.2826 65.9497 22.1914C65.6645 22.0942 65.3832 21.9857 65.1067 21.8659C64.8088 21.738 64.508 21.6172 64.2044 21.5035C64.1157 21.4742 64.0566 21.5088 64.0269 21.6072L63.6272 22.777C63.5977 22.866 63.6275 22.9254 63.7165 22.9552C64.152 23.1186 64.5883 23.2797 65.0254 23.4386C65.3954 23.5721 65.7003 23.701 65.9422 23.825C66.184 23.9488 66.3616 24.0777 66.4749 24.2117C66.5882 24.3457 66.6449 24.5066 66.6449 24.6946C66.6447 24.9225 66.5363 25.1108 66.3197 25.2595C66.1027 25.4081 65.6984 25.4824 65.1067 25.4824H62.2223C61.9385 25.4825 61.6555 25.4503 61.379 25.3864C61.103 25.3223 60.8565 25.2162 60.6394 25.0683C60.4224 24.9205 60.2474 24.7232 60.1145 24.4766C59.9815 24.23 59.915 23.9194 59.915 23.5448C59.9149 23.1602 59.9862 22.7856 60.129 22.4208C60.2721 22.0559 60.4275 21.7354 60.5951 21.4593C60.6444 21.3803 60.6298 21.3162 60.5511 21.2671L59.3821 20.6604C59.2939 20.6012 59.2242 20.6112 59.1752 20.6899C59.0371 20.8838 58.9158 21.0892 58.8127 21.3038C58.6961 21.5437 58.5949 21.7908 58.5098 22.0436C58.4194 22.3094 58.3477 22.5812 58.2954 22.857C58.2415 23.1323 58.2142 23.4122 58.2136 23.6928C58.2136 24.7081 58.5262 25.5117 59.1514 26.1038C59.7766 26.6953 60.7293 26.9912 62.0096 26.9914H65.3771C65.9087 26.9912 66.3592 26.9345 66.7288 26.8214C67.0976 26.7077 67.3978 26.5573 67.6294 26.37C67.8608 26.1825 68.0308 25.9656 68.1393 25.7191C68.2478 25.4721 68.3031 25.2051 68.3018 24.9353C68.303 24.7461 68.2707 24.5583 68.2063 24.3804C68.1425 24.2079 68.0864 24.0823 68.0381 24.0035H70.3133C70.7837 24.0035 71.1535 23.9487 71.4226 23.8393C71.6916 23.7295 71.8944 23.5302 72.0312 23.2414C72.1975 23.5603 72.4236 23.767 72.7096 23.8615C72.9657 23.9463 73.2611 23.993 73.5959 24.0015C73.6156 24.0025 74.9136 24.0035 74.9136 24.0035C75.1889 24.0035 75.4266 23.9887 75.6267 23.959C75.8188 23.9325 76.0021 23.8616 76.1621 23.752C76.2891 23.9197 76.509 24.0035 76.822 24.0035H80.7202C81.2639 24.0035 81.7259 23.9689 82.1064 23.8998C82.4869 23.8308 82.7982 23.6927 83.0402 23.4856C83.2821 23.2785 83.4575 22.9877 83.5663 22.6133C83.6751 22.2384 83.7295 21.7451 83.7295 21.1336C83.7295 20.6012 83.6629 20.1156 83.5296 19.6769C83.3958 19.2381 83.1831 18.8658 82.8919 18.5599ZM98.5657 25.231H97.146C97.0473 25.231 96.998 25.2808 96.998 25.3804V26.6642C96.998 26.764 97.0472 26.8138 97.1457 26.8136H98.5657C98.6645 26.8136 98.7139 26.7638 98.7139 26.6642V25.3804C98.7139 25.2808 98.6645 25.231 98.5657 25.231Z" fill="#EEEEEE"/>
</g>
<defs>
<clipPath id="clip0_5_705">
<rect width="212.002" height="56" fill="white"/>
</clipPath>
</defs>
</svg>
