<svg width="359" height="56" viewBox="0 0 359 56" fill="none" xmlns="http://www.w3.org/2000/svg">
<path d="M85.0568 40.1178C85.0568 38.6875 89.225 28.0216 89.225 25.9784C89.225 25.8149 89.0616 25.5697 88.9798 25.5697C88.6121 25.5697 87.713 28.226 84.9342 36.2356L82.4005 43.5505H77.088L77.1289 43.3053L78.314 40.2812C81.0928 29.6154 82.4822 25.2428 82.4822 24.1803C82.4822 24.0168 82.4414 23.976 82.4005 23.976C82.1962 23.976 81.7875 24.3846 81.0111 26.6322L80.8068 26.5913C81.5832 23.5673 82.7683 21.524 84.076 21.524C85.1385 21.524 86.9366 23.976 86.9366 25.6923C86.9366 27.0817 85.6698 31.2091 83.8717 37.9111L84.6072 35.8678C87.8356 26.7548 89.6746 21.4832 90.5736 21.4832C92.8621 21.4832 94.5375 23.8125 94.5375 25.3654C94.5375 27.5312 89.7972 39.4231 89.7972 41.0986C89.7972 41.3029 89.8789 41.3846 89.9606 41.3846C90.1649 41.3846 90.8188 40.2812 91.4318 38.6058L91.6361 38.6466C90.9414 41.3846 89.5928 44 88.4077 44C87.1 44 85.0568 41.9976 85.0568 40.1178Z" fill="white"/>
<path d="M76.7451 37.2572L76.9495 37.3798C75.887 40.6082 74.1706 44 71.1057 44C68.6129 44 67.4278 41.7933 67.4278 38.4832C67.4278 30.7188 74.1298 21.524 78.2572 21.524C79.6466 21.524 80.3822 22.6683 80.3822 24.3437C80.3822 27.1226 78.0937 31.1683 73.0673 32.3942C72.7403 33.8654 72.536 35.2957 72.536 36.4808C72.536 38.7692 73.2716 39.7909 74.2115 39.7909C75.3966 39.7909 76.0913 38.7284 76.7451 37.2572ZM77.1129 21.9736C76.4591 21.9736 74.1706 27.2452 73.1081 32.1082C75.887 30.2692 77.3173 24.3029 77.3173 22.5048C77.3173 22.2187 77.2764 21.9736 77.1129 21.9736Z" fill="white"/>
<path d="M68.4195 19.726C66.9074 19.726 65.7224 18.5 65.7224 16.988C65.7224 15.5168 66.9074 14.2909 68.4195 14.2909C69.9315 14.2909 71.1166 15.5168 71.1166 16.988C71.1166 18.5 69.9315 19.726 68.4195 19.726ZM63.393 44C62.0445 44 60.0421 41.9976 60.0421 40.1178C60.0421 37.7476 64.1286 25.7332 64.1286 24.1803C64.1286 24.0168 64.0877 23.976 64.0469 23.976C63.8425 23.976 63.4339 24.3846 62.6575 26.6322L62.4531 26.5913C63.2296 23.5673 64.4147 21.524 65.7224 21.524C66.7849 21.524 68.5829 23.8125 68.5829 26.0192C68.5829 28.0625 64.7824 38.3606 64.7824 41.0986C64.7824 41.3029 64.8642 41.3846 64.9459 41.3846C65.1502 41.3846 65.8041 40.2812 66.4171 38.6058L66.6214 38.6466C65.9267 41.3846 64.5781 44 63.393 44Z" fill="white"/>
<path d="M52.8268 40.1178C52.8268 38.6466 53.4398 36.6034 54.2163 33.2933L55.5239 28.3077L53.1537 35.2957C51.2739 40.8125 49.9254 44 48.8629 44C46.7788 44 45.185 42.2837 45.185 39.0144C45.185 32.8846 53.1129 21.524 56.0961 21.524C56.3821 21.524 56.7908 21.5649 57.2403 21.6058L59.4062 13.351L59.4879 10.8173L65.2499 10L64.8004 11.7572L59.2427 33.2933C58.3845 36.6851 57.5672 39.8317 57.5672 41.0986C57.5672 41.3029 57.6489 41.3846 57.7307 41.3846C57.8941 41.3846 58.5888 40.2813 59.2018 38.6058L59.4062 38.6466C58.548 41.3846 57.3629 44 56.1778 44C54.8292 44 52.8268 41.9976 52.8268 40.1178ZM50.2932 40.363C50.2932 40.649 50.334 40.7716 50.4566 40.7716C50.7018 40.7716 51.3965 39.137 52.786 35.0096L56.7908 23.1587C56.4638 22.2596 56.1778 21.9327 56.0552 21.9327C55.2379 21.9327 50.2932 37.5433 50.2932 40.363Z" fill="white"/>
<path d="M46.59 19.726C45.078 19.726 43.8929 18.5 43.8929 16.988C43.8929 15.5168 45.078 14.2909 46.59 14.2909C48.1021 14.2909 49.2872 15.5168 49.2872 16.988C49.2872 18.5 48.1021 19.726 46.59 19.726ZM41.5636 44C40.215 44 38.2126 41.9976 38.2126 40.1178C38.2126 37.7476 42.2992 25.7332 42.2992 24.1803C42.2992 24.0168 42.2583 23.976 42.2174 23.976C42.0131 23.976 41.6045 24.3846 40.828 26.6322L40.6237 26.5913C41.4001 23.5673 42.5852 21.524 43.8929 21.524C44.9554 21.524 46.7535 23.8125 46.7535 26.0192C46.7535 28.0625 42.953 38.3606 42.953 41.0986C42.953 41.3029 43.0348 41.3846 43.1165 41.3846C43.3208 41.3846 43.9747 40.2812 44.5876 38.6058L44.792 38.6466C44.0973 41.3846 42.7487 44 41.5636 44Z" fill="white"/>
<path d="M37.6226 28.6346C36.1923 28.6346 35.2933 30.1058 33.1683 36.2356L30.6346 43.5505H25.5673L25.6082 43.3053L26.7933 40.2812C29.5721 29.6154 30.9615 25.2428 30.9615 24.1803C30.9615 24.0168 30.9207 23.976 30.8798 23.976C30.6755 23.976 30.2668 24.3846 29.4904 26.6322L29.286 26.5913C30.0625 23.5673 31.2476 21.524 32.5553 21.524C33.6178 21.524 35.4159 23.976 35.4159 25.6923C35.4159 27.0409 34.0264 31.0048 32.2692 37.3798L32.8005 35.8678C36.4783 25.3654 38.8077 21.524 41.3822 21.524L39.1755 29.0024C38.6851 28.7981 38.113 28.6346 37.6226 28.6346Z" fill="white"/>
<path d="M30.0874 14.25H30.1283L31.3134 18.2139L24.9792 19.7668L24.8975 19.5625C25.96 18.7452 28.6162 16.0481 30.0874 14.25ZM25.2244 37.2572L25.4287 37.3798C24.3662 40.6082 22.6499 44 19.585 44C17.0922 44 15.9071 41.7933 15.9071 38.4832C15.9071 30.7187 22.609 21.524 26.7364 21.524C28.1259 21.524 28.8614 22.6683 28.8614 24.3437C28.8614 27.1226 26.573 31.1683 21.5465 32.3942C21.2196 33.8654 21.0153 35.2957 21.0153 36.4808C21.0153 38.7692 21.7509 39.7909 22.6908 39.7909C23.8759 39.7909 24.5706 38.7284 25.2244 37.2572ZM25.5922 21.9736C24.9384 21.9736 22.6499 27.2452 21.5874 32.1082C24.3662 30.2692 25.7965 24.3029 25.7965 22.5048C25.7965 22.2187 25.7557 21.9736 25.5922 21.9736Z" fill="white"/>
<path d="M7.47836 31.2909H6.41586L5.80288 18.2548L1.87981 38.6058L3.43269 43.3053L3.39183 43.5505H0L0.0408655 43.3053L1.47115 38.6058L5.80288 16.2524L5.92548 13.1466L5.96635 12.9014H10.7067L11.1154 22.0144L15.0385 12.9014H20.0649L20.024 13.1466L18.6755 16.2524L13.976 40.1995V43.3053L13.9351 43.5505H7.64183L7.68269 43.3053L8.78606 40.1995L12.9952 18.4183L7.47836 31.2909Z" fill="white"/>
<line x1="121.038" y1="2.18557e-08" x2="121.038" y2="56" stroke="white"/>
<g clip-path="url(#clip0_48_96)">
<path d="M342.339 13.4537C341.465 13.4537 339.411 14.9067 337.016 17.6273C338.172 24.3597 339.341 30.2284 340.401 34.6203C342.272 42.3741 343.464 44.151 343.909 44.5582C343.93 44.5775 343.955 44.5923 343.982 44.6016C344.009 44.6109 344.037 44.6145 344.066 44.6122C344.094 44.6099 344.122 44.6018 344.147 44.5883C344.172 44.5749 344.195 44.5564 344.212 44.5339C344.468 44.207 344.996 43.1752 345.506 39.9639C347.33 28.4878 346.685 17.4671 344.008 14.3293C343.504 13.7399 342.959 13.4537 342.339 13.4537ZM346.858 40.1776C346.208 44.284 345.378 46.0374 344.09 46.0456H344.08C342.883 46.0456 341.457 44.7249 339.146 35.2609C338.118 31.045 336.988 25.4477 335.864 19.0041C334.977 20.1156 334.064 21.3866 333.163 22.8058C332.503 23.847 331.884 24.9132 331.306 26.0021C333.713 30.7028 336.258 37.5099 336.258 45.267V45.9521H324.811V45.267C324.811 37.5099 327.358 30.7028 329.763 26.0021C329.186 24.9128 328.568 23.8466 327.908 22.8058C327.01 21.3933 326.103 20.1301 325.221 19.0213C324.386 23.8028 323.204 30.0672 321.935 35.2599C319.62 44.7249 318.19 46.0456 316.991 46.0456H316.983C315.692 46.0374 314.864 44.283 314.21 40.1776C313.348 34.7462 313.001 29.1307 313.233 24.3687C313.413 20.6622 314.043 15.7582 316.021 13.4402C316.79 12.5404 317.702 12.0843 318.73 12.0843C320.089 12.0843 322.217 13.6129 324.483 16.0559C325.126 14.6095 326.358 14.0638 327.311 13.6447C327.741 13.4537 328.363 13.231 328.658 12.7631C328.807 12.5287 328.789 12.1927 328.705 11.982C328.426 11.2859 326.951 10.9075 324.696 11.4769C324.467 7.29976 328.024 5.71059 330.005 5.6761C333.216 5.62161 335.321 7.74766 335.963 11.6636L336.715 15.9199C338.933 13.5569 341.007 12.0843 342.339 12.0843C343.369 12.0843 344.28 12.5404 345.049 13.4402C347.027 15.7572 347.657 20.6622 347.838 24.3687C348.07 29.1307 347.722 34.7462 346.858 40.1776ZM330.535 3.8147e-05C315.095 3.8147e-05 302.535 12.5604 302.535 27.9994C302.535 43.4397 315.095 56 330.535 56C345.975 56 358.535 43.4397 358.535 27.9994C358.535 12.5604 345.975 3.8147e-05 330.535 3.8147e-05ZM329.862 7.04181C327.909 7.16778 326.593 8.49176 326.187 9.88771C327.091 9.83397 328.458 9.87572 329.32 10.5891C329.588 10.8109 329.802 11.0916 329.944 11.4093C330.086 11.727 330.153 12.0732 330.139 12.4209C329.964 15.3656 326.11 14.3263 325.532 17.2424C326.729 18.6584 327.936 20.2968 329.063 22.0724C329.579 22.8839 330.07 23.7112 330.535 24.5531C331.001 23.7118 331.491 22.8845 332.006 22.0724C333.139 20.2893 334.353 18.6429 335.555 17.2237L334.594 11.7821C334.204 9.36282 332.727 6.85985 329.862 7.04181ZM318.73 13.4537C318.112 13.4537 317.567 13.7399 317.063 14.3293C314.384 17.4671 313.741 28.4878 315.564 39.9639C316.076 43.182 316.605 44.2115 316.86 44.5357C316.935 44.6297 317.074 44.6407 317.163 44.5602C317.608 44.1565 318.803 42.3881 320.681 34.6235C322.018 29.0939 323.254 22.3983 324.07 17.6438C321.667 14.9122 319.606 13.4537 318.73 13.4537ZM326.187 44.5837H334.882C334.748 37.8468 332.655 31.8794 330.535 27.521C328.416 31.8794 326.322 37.8468 326.187 44.5837ZM288.962 37.7134C288.962 37.4848 288.932 37.2806 288.873 37.101C288.774 36.8124 288.601 36.5861 288.355 36.4221C288.109 36.258 287.818 36.1759 287.482 36.1759C287.137 36.1759 286.841 36.258 286.595 36.4221C286.348 36.5863 286.175 36.8127 286.077 37.1013C286.018 37.2807 285.988 37.4848 285.988 37.7134C285.988 37.7729 286.018 37.8027 286.077 37.8029H288.873C288.932 37.8029 288.962 37.773 288.962 37.7134ZM287.541 42.2257C286.782 42.2257 286.148 42.0506 285.638 41.7003C285.129 41.3504 284.776 40.8649 284.581 40.2438C284.498 39.9956 284.436 39.7405 284.398 39.4815C284.354 39.2007 284.332 38.873 284.332 38.4982C284.332 38.1233 284.351 37.793 284.39 37.5074C284.429 37.2211 284.488 36.9647 284.566 36.7381C284.762 36.1165 285.117 35.6333 285.631 35.2884C286.145 34.9435 286.757 34.7709 287.467 34.7707C288.207 34.7707 288.831 34.9457 289.339 35.2956C289.847 35.6459 290.199 36.1266 290.396 36.7378C290.436 36.8661 290.47 36.9944 290.5 37.1225C290.529 37.2508 290.554 37.3986 290.574 37.5659C290.593 37.734 290.608 37.9239 290.618 38.1355C290.628 38.3478 290.633 38.5969 290.633 38.8829C290.633 38.9814 290.579 39.0307 290.47 39.0308H286.077C286.018 39.0308 285.988 39.0603 285.988 39.1193C285.988 39.2278 285.998 39.3265 286.018 39.4153C286.038 39.5039 286.062 39.5877 286.092 39.6665C286.338 40.3863 286.871 40.7462 287.689 40.7462C288.094 40.7464 288.429 40.6823 288.695 40.5538C288.962 40.4261 289.183 40.2635 289.361 40.0659C289.44 39.9872 289.514 39.9775 289.583 40.0366L290.456 40.8055C290.524 40.8648 290.529 40.9338 290.47 41.0124C290.164 41.3674 289.765 41.6584 289.272 41.8855C288.779 42.1121 288.202 42.2257 287.541 42.2257ZM280.854 42.2254C280.134 42.2254 279.515 42.0578 278.998 41.7225C278.48 41.3873 278.118 40.899 277.911 40.2578C277.763 39.8143 277.688 39.2276 277.688 38.498C277.688 37.7683 277.763 37.1816 277.911 36.7378C278.117 36.097 278.48 35.6087 278.998 35.2731C279.515 34.938 280.134 34.7705 280.854 34.7705C281.386 34.7705 281.86 34.869 282.274 35.0659C282.68 35.2567 283.038 35.5346 283.325 35.8798C283.383 35.9587 283.378 36.0277 283.31 36.0867L282.378 36.9005C282.299 36.9595 282.229 36.9495 282.171 36.8706C281.993 36.6734 281.803 36.5206 281.601 36.4121C281.399 36.3038 281.15 36.2497 280.854 36.2497C280.538 36.2497 280.265 36.3261 280.033 36.4789C279.802 36.6317 279.631 36.8658 279.523 37.1812C279.464 37.3589 279.424 37.5537 279.405 37.7656C279.383 38.0091 279.374 38.2535 279.375 38.498C279.375 38.7739 279.385 39.0204 279.405 39.2376C279.424 39.4547 279.464 39.6519 279.523 39.8292C279.631 40.1348 279.801 40.3641 280.033 40.517C280.265 40.67 280.538 40.7464 280.854 40.7462C281.15 40.7462 281.399 40.692 281.601 40.5835C281.803 40.4752 281.993 40.3223 282.171 40.1249C282.229 40.0562 282.299 40.0512 282.378 40.1099L283.31 40.924C283.369 40.9731 283.374 41.0421 283.325 41.1309C283.038 41.4663 282.688 41.7325 282.274 41.9295C281.86 42.1268 281.386 42.2254 280.854 42.2254ZM274.682 42.0625C274.583 42.0625 274.533 42.0132 274.533 41.9147V35.0809C274.533 34.9823 274.583 34.933 274.682 34.9332H276.042C276.141 34.9332 276.19 34.9824 276.19 35.0807V41.9147C276.19 42.0132 276.141 42.0624 276.042 42.0622L274.682 42.0625ZM274.682 33.5867C274.583 33.5869 274.533 33.5376 274.533 33.4388V32.1523C274.533 32.0535 274.583 32.0041 274.682 32.0041H276.042C276.141 32.0041 276.19 32.0535 276.19 32.1523V33.4388C276.19 33.5376 276.141 33.5869 276.042 33.5867H274.682ZM270.278 42.0625C270.179 42.0625 270.13 42.0132 270.13 41.9147V36.3089C270.13 36.2496 270.1 36.2199 270.041 36.2197H269.568C269.469 36.2197 269.42 36.1704 269.42 36.072V35.0809C269.42 34.9823 269.469 34.933 269.568 34.9332H270.041C270.1 34.9332 270.13 34.9036 270.13 34.8442V34.3856C270.13 33.5476 270.33 32.941 270.729 32.566C271.128 32.1914 271.718 32.0041 272.497 32.0041H273.147C273.246 32.0041 273.296 32.0535 273.296 32.1523V33.3353C273.296 33.4341 273.246 33.4834 273.147 33.4833H272.689C272.502 33.4833 272.349 33.4958 272.231 33.5208C272.112 33.5452 272.021 33.5921 271.957 33.6612C271.893 33.7299 271.848 33.8185 271.824 33.9272C271.799 34.0355 271.787 34.1785 271.787 34.3561V34.8442C271.787 34.9036 271.816 34.9332 271.875 34.9332H273.147C273.246 34.9332 273.296 34.9824 273.296 35.0807V36.072C273.296 36.1703 273.246 36.2194 273.147 36.2194H271.875C271.816 36.2194 271.787 36.2493 271.787 36.3089V41.9147C271.787 42.0132 271.737 42.0624 271.639 42.0622L270.278 42.0625ZM265.392 42.0625C265.294 42.0625 265.244 42.0132 265.244 41.9147V36.3089C265.244 36.2496 265.215 36.2199 265.156 36.2197H264.682C264.584 36.2197 264.534 36.1704 264.534 36.072V35.0809C264.534 34.9823 264.584 34.933 264.682 34.9332H265.156C265.215 34.9332 265.244 34.9036 265.244 34.8442V34.3856C265.244 33.5476 265.444 32.941 265.843 32.566C266.243 32.1914 266.832 32.0041 267.611 32.0041H268.262C268.36 32.0041 268.41 32.0535 268.41 32.1523V33.3353C268.41 33.4341 268.36 33.4834 268.262 33.4833H267.804C267.616 33.4833 267.463 33.4958 267.345 33.5208C267.227 33.5452 267.135 33.5921 267.071 33.6612C267.007 33.7299 266.962 33.8185 266.938 33.9272C266.914 34.0355 266.901 34.1785 266.901 34.3561V34.8442C266.901 34.9036 266.931 34.9332 266.99 34.9332H268.262C268.36 34.9332 268.41 34.9824 268.41 35.0807V36.072C268.41 36.1703 268.36 36.2194 268.262 36.2194H266.99C266.931 36.2194 266.901 36.2493 266.901 36.3089V41.9147C266.901 42.0132 266.852 42.0624 266.753 42.0622L265.392 42.0625ZM259.445 40.6428C259.947 40.6428 260.352 40.5271 260.657 40.2958C260.963 40.0644 261.185 39.7421 261.323 39.329C261.353 39.2404 261.377 39.1371 261.397 39.0191C261.417 38.901 261.434 38.7533 261.449 38.5762C261.463 38.3992 261.476 38.1851 261.486 37.9338C261.496 37.683 261.501 37.3805 261.501 37.0263C261.501 36.672 261.496 36.3692 261.486 36.118C261.478 35.9039 261.466 35.6899 261.449 35.4763C261.437 35.328 261.42 35.1802 261.397 35.0332C261.38 34.9281 261.356 34.8244 261.323 34.723C261.185 34.3101 260.963 33.9879 260.657 33.7565C260.352 33.525 259.947 33.4094 259.445 33.4095C258.942 33.4097 258.54 33.5253 258.239 33.7565C257.938 33.9879 257.719 34.3101 257.581 34.723C257.551 34.812 257.524 34.9153 257.499 35.0329C257.471 35.1794 257.451 35.3275 257.44 35.4763C257.424 35.6899 257.414 35.9038 257.411 36.118C257.406 36.3694 257.403 36.6722 257.403 37.0263C257.403 37.3804 257.406 37.683 257.411 37.9341C257.416 38.185 257.425 38.3991 257.44 38.5762C257.455 38.7533 257.475 38.901 257.499 39.0194C257.524 39.137 257.551 39.2402 257.581 39.329C257.719 39.7423 257.938 40.0645 258.239 40.2958C258.54 40.5273 258.942 40.6428 259.445 40.6428ZM259.445 42.2257C258.577 42.2257 257.832 42.0207 257.211 41.6108C256.589 41.2009 256.151 40.596 255.895 39.7962C255.845 39.6402 255.803 39.4821 255.769 39.3223C255.731 39.1413 255.704 38.9583 255.687 38.7742C255.665 38.5304 255.65 38.286 255.643 38.0413C255.633 37.7597 255.628 37.4214 255.628 37.0265C255.628 36.6316 255.633 36.2933 255.643 36.0115C255.653 35.73 255.667 35.4857 255.687 35.2784C255.707 35.0711 255.734 34.8884 255.769 34.7303C255.803 34.5725 255.845 34.4145 255.895 34.2564C256.151 33.4565 256.589 32.8516 257.211 32.4417C257.832 32.0322 258.577 31.8272 259.445 31.8269C260.322 31.827 261.072 32.032 261.693 32.4417C262.314 32.8515 262.753 33.4564 263.009 34.2564C263.058 34.4145 263.1 34.5725 263.135 34.7303C263.169 34.8885 263.196 35.0713 263.216 35.2784C263.236 35.4858 263.251 35.7302 263.261 36.0115C263.271 36.3496 263.276 36.688 263.275 37.0263C263.275 37.4217 263.27 37.7599 263.261 38.0411C263.253 38.2858 263.238 38.5303 263.216 38.7742C263.196 38.9814 263.169 39.1642 263.135 39.3223C263.1 39.4821 263.058 39.6402 263.009 39.7964C262.753 40.5963 262.314 41.2011 261.693 41.6111C261.071 42.021 260.322 42.2258 259.445 42.2257ZM247.153 40.8797C247.665 40.8797 248.057 40.7811 248.328 40.5838C248.6 40.3865 248.735 40.0807 248.735 39.6665V39.1191C248.735 39.0603 248.706 39.0308 248.647 39.0308H247.463C246.931 39.0307 246.541 39.107 246.295 39.2598C246.048 39.4128 245.925 39.6569 245.925 39.9921C245.925 40.5837 246.334 40.8797 247.153 40.8797ZM248.913 42.0625C248.814 42.0625 248.765 42.0132 248.765 41.9147V41.3971H248.75C248.582 41.6436 248.331 41.8433 247.996 41.9962C247.66 42.1489 247.241 42.2253 246.738 42.2254C246.425 42.2274 246.114 42.1827 245.814 42.0927C245.523 42.0047 245.269 41.8721 245.052 41.6948C244.835 41.5182 244.663 41.2945 244.534 41.0237C244.406 40.7537 244.342 40.4319 244.342 40.0581C244.342 39.2816 244.596 38.7117 245.104 38.3482C245.611 37.9847 246.309 37.8028 247.197 37.8026H248.647C248.706 37.8026 248.735 37.7728 248.735 37.7131V37.3699C248.735 36.9517 248.622 36.6481 248.395 36.4591C248.168 36.2702 247.754 36.1757 247.153 36.1757C246.748 36.1757 246.418 36.2224 246.162 36.3157C245.905 36.4098 245.693 36.5259 245.525 36.6638C245.436 36.7327 245.367 36.7227 245.318 36.6339L244.771 35.6578C244.722 35.5793 244.732 35.5152 244.8 35.4654C245.086 35.2586 245.432 35.091 245.836 34.9627C246.241 34.8344 246.738 34.7702 247.33 34.7702C248.415 34.7702 249.182 34.9675 249.63 35.3621C250.079 35.7567 250.303 36.3878 250.303 37.2555V41.9145C250.303 42.0133 250.254 42.0626 250.155 42.0625H248.913ZM241.378 42.0625C241.279 42.0625 241.23 42.0132 241.23 41.9147V35.0809C241.23 34.9823 241.279 34.933 241.378 34.9332H242.739C242.837 34.9332 242.886 34.9824 242.886 35.0807V41.9147C242.886 42.0132 242.837 42.0624 242.739 42.0622L241.378 42.0625ZM241.378 33.5867C241.279 33.5869 241.23 33.5376 241.23 33.4388V32.1523C241.23 32.0535 241.279 32.0041 241.378 32.0041H242.739C242.837 32.0041 242.886 32.0535 242.886 32.1523V33.4388C242.886 33.5376 242.837 33.5869 242.739 33.5867H241.378ZM236.276 40.7462C236.966 40.7462 237.41 40.4405 237.607 39.8289C237.657 39.6615 237.693 39.479 237.718 39.2815C237.743 39.0844 237.755 38.8232 237.755 38.498C237.755 38.1727 237.743 37.9113 237.718 37.7139C237.696 37.5288 237.659 37.3457 237.607 37.1665C237.41 36.5553 236.966 36.2497 236.276 36.2497C235.595 36.2497 235.157 36.5553 234.96 37.1665C234.908 37.3457 234.871 37.5287 234.849 37.7139C234.824 37.9112 234.811 38.1725 234.811 38.498C234.811 38.8231 234.824 39.0843 234.849 39.2818C234.873 39.4791 234.91 39.6616 234.96 39.8292C235.157 40.4406 235.595 40.7462 236.276 40.7462ZM237.903 42.0625C237.805 42.0625 237.755 42.0132 237.755 41.9147V41.3824H237.741C237.573 41.629 237.336 41.8311 237.03 41.9887C236.725 42.1464 236.33 42.2253 235.847 42.2254C235.236 42.2254 234.718 42.0825 234.294 41.7965C233.87 41.5106 233.564 41.0815 233.377 40.5093C233.288 40.232 233.224 39.9474 233.185 39.6587C233.145 39.3681 233.125 38.9812 233.125 38.498C233.125 38.0147 233.145 37.6276 233.185 37.3367C233.224 37.046 233.288 36.7618 233.377 36.4864C233.564 35.9147 233.87 35.4856 234.294 35.1992C234.718 34.9135 235.236 34.7707 235.847 34.7705C236.33 34.7705 236.725 34.8494 237.03 35.0072C237.336 35.165 237.573 35.3671 237.741 35.6136H237.755V32.1523C237.755 32.0535 237.805 32.0041 237.903 32.0041H239.264C239.362 32.0041 239.412 32.0535 239.412 32.1523V41.9147C239.412 42.0132 239.363 42.0624 239.264 42.0622L237.903 42.0625ZM230.244 37.7131C230.244 37.4845 230.215 37.2804 230.155 37.1008C230.057 36.8122 229.884 36.5859 229.638 36.4219C229.391 36.2579 229.1 36.1759 228.765 36.1757C228.42 36.1757 228.124 36.2578 227.877 36.4219C227.631 36.586 227.458 36.8124 227.36 37.101C227.301 37.2805 227.271 37.4845 227.271 37.7131C227.271 37.7726 227.301 37.8024 227.36 37.8026H230.155C230.215 37.8026 230.244 37.7728 230.244 37.7131ZM228.824 42.2254C228.065 42.2254 227.43 42.0503 226.921 41.7C226.411 41.3501 226.059 40.8646 225.863 40.2436C225.78 39.9953 225.719 39.7402 225.68 39.4813C225.636 39.2005 225.614 38.8727 225.614 38.498C225.614 38.1232 225.634 37.7929 225.673 37.5072C225.712 37.2209 225.77 36.9645 225.849 36.7378C226.044 36.1163 226.399 35.6331 226.914 35.2881C227.428 34.9432 228.04 34.7707 228.75 34.7705C229.49 34.7705 230.113 34.9455 230.621 35.2954C231.129 35.6456 231.481 36.1264 231.679 36.7376C231.718 36.8659 231.753 36.9941 231.782 37.1222C231.812 37.2506 231.837 37.3984 231.857 37.5657C231.876 37.7338 231.891 37.9237 231.901 38.1353C231.911 38.3476 231.916 38.5967 231.916 38.8826C231.916 38.9811 231.861 39.0304 231.753 39.0306H227.36C227.301 39.0306 227.271 39.0601 227.271 39.1191C227.271 39.2276 227.281 39.3262 227.301 39.415C227.32 39.5038 227.345 39.5876 227.374 39.6662C227.621 40.3861 228.153 40.746 228.972 40.746C229.376 40.7462 229.712 40.682 229.978 40.5535C230.244 40.4259 230.466 40.2633 230.644 40.0656C230.722 39.987 230.796 39.9772 230.865 40.0364L231.738 40.8052C231.807 40.8646 231.812 40.9335 231.753 41.0122C231.447 41.3671 231.048 41.6581 230.555 41.8853C230.062 42.1119 229.485 42.2254 228.824 42.2254ZM215.075 32.152C215.075 32.0532 215.124 32.0038 215.223 32.0038H216.54C216.668 32.0038 216.751 32.0532 216.791 32.152L219.557 38.35H219.616L222.338 32.152C222.377 32.0532 222.461 32.0038 222.589 32.0038H223.891C223.989 32.0038 224.039 32.0532 224.039 32.152V41.9145C224.039 42.013 223.99 42.0621 223.891 42.062H222.604C222.506 42.0621 222.456 42.013 222.456 41.9145V35.7608H222.397L220.267 40.4948C220.208 40.6228 220.114 40.6868 219.986 40.6868H219.128C219 40.6868 218.906 40.6228 218.847 40.4948L216.717 35.7608H216.658V41.9145C216.658 42.013 216.608 42.0621 216.51 42.062H215.223C215.124 42.0621 215.075 42.013 215.075 41.9145V32.152ZM207.886 42.0622C207.788 42.0622 207.738 42.013 207.738 41.9145V35.0807C207.738 34.982 207.788 34.9328 207.886 34.933H209.247C209.346 34.933 209.395 34.9821 209.395 35.0804V41.9145C209.395 42.013 209.346 42.0621 209.247 42.062L207.886 42.0622ZM207.886 33.5865C207.788 33.5867 207.738 33.5373 207.738 33.4385V32.152C207.738 32.0532 207.788 32.0038 207.886 32.0038H209.247C209.346 32.0038 209.395 32.0532 209.395 32.152V33.4385C209.395 33.5373 209.346 33.5867 209.247 33.5865H207.886ZM203.063 40.746C203.743 40.746 204.182 40.4402 204.379 39.8287C204.428 39.6612 204.465 39.4788 204.49 39.2813C204.515 39.0842 204.527 38.823 204.527 38.4977C204.527 38.1724 204.515 37.9111 204.49 37.7136C204.468 37.5285 204.431 37.3454 204.379 37.1662C204.182 36.555 203.743 36.2494 203.063 36.2494C202.372 36.2494 201.929 36.555 201.732 37.1662C201.68 37.3453 201.643 37.5284 201.621 37.7136C201.596 37.9109 201.583 38.1723 201.583 38.4977C201.583 38.8228 201.596 39.0841 201.621 39.2815C201.645 39.4788 201.682 39.6613 201.732 39.8289C201.929 40.4403 202.372 40.746 203.063 40.746ZM203.492 42.2252C203.009 42.225 202.614 42.1461 202.308 41.9885C202.002 41.8308 201.766 41.6287 201.598 41.3821H201.583V41.9145C201.583 42.013 201.534 42.0621 201.436 42.062H200.075C199.976 42.0621 199.927 42.013 199.927 41.9145V32.152C199.927 32.0532 199.976 32.0038 200.075 32.0038H201.436C201.534 32.0038 201.583 32.0532 201.583 32.152V35.6133H201.598C201.766 35.367 202.002 35.1649 202.308 35.0069C202.614 34.8491 203.008 34.7702 203.492 34.7702C204.103 34.7704 204.62 34.9133 205.045 35.1989C205.469 35.4852 205.774 35.9143 205.962 36.4861C206.051 36.7621 206.115 37.0455 206.154 37.3365C206.194 37.6274 206.213 38.0145 206.213 38.4977C206.213 38.9808 206.194 39.3677 206.154 39.6585C206.115 39.9472 206.051 40.2319 205.962 40.5093C205.774 41.0813 205.469 41.5103 205.045 41.7963C204.62 42.082 204.103 42.225 203.492 42.2252ZM194.992 40.8792C195.505 40.8792 195.897 40.7806 196.168 40.5833C196.439 40.386 196.575 40.0802 196.575 39.666V39.1186C196.575 39.0598 196.545 39.0303 196.486 39.0303H195.303C194.77 39.0302 194.381 39.1065 194.134 39.2593C193.888 39.4123 193.765 39.6564 193.765 39.9916C193.764 40.5832 194.174 40.8792 194.992 40.8792ZM196.752 42.062C196.654 42.062 196.604 42.0127 196.604 41.9142V41.3966H196.59C196.422 41.6431 196.17 41.8428 195.835 41.9957C195.5 42.1484 195.081 42.2248 194.578 42.2249C194.253 42.2249 193.945 42.1807 193.654 42.0922C193.362 42.0042 193.109 41.8716 192.892 41.6943C192.675 41.5177 192.502 41.294 192.374 41.0232C192.246 40.7532 192.182 40.4314 192.182 40.0576C192.182 39.2811 192.436 38.7112 192.944 38.3477C193.451 37.9842 194.149 37.8023 195.037 37.8021H196.486C196.545 37.8021 196.575 37.7723 196.575 37.7126V37.3694C196.575 36.9512 196.462 36.6476 196.235 36.4586C196.008 36.2697 195.593 36.1752 194.992 36.1752C194.588 36.1752 194.258 36.2219 194.001 36.3152C193.745 36.4093 193.533 36.5254 193.365 36.6633C193.276 36.7322 193.207 36.7222 193.158 36.6334L192.611 35.6573C192.561 35.5788 192.571 35.5147 192.64 35.4649C192.926 35.2581 193.271 35.0905 193.676 34.9622C194.08 34.8339 194.578 34.7697 195.17 34.7697C196.255 34.7697 197.021 34.967 197.47 35.3616C197.918 35.7562 198.143 36.3873 198.143 37.255V41.914C198.143 42.0128 198.093 42.0621 197.995 42.062H196.752ZM189.297 42.062C189.199 42.062 189.15 42.0127 189.15 41.9142V37.8021C189.15 37.3389 189.036 36.9641 188.809 36.6778C188.583 36.3921 188.247 36.2492 187.804 36.2492C187.369 36.2492 187.034 36.3921 186.798 36.6778C186.561 36.9641 186.443 37.3389 186.443 37.8021V41.9142C186.443 42.0127 186.393 42.0619 186.295 42.0617H184.934C184.835 42.0619 184.786 42.0127 184.786 41.9142V32.1518C184.786 32.053 184.835 32.0036 184.934 32.0036H186.295C186.393 32.0036 186.443 32.053 186.443 32.1518V35.5983H186.457C186.615 35.3714 186.849 35.1766 187.16 35.0139C187.471 34.8513 187.863 34.77 188.336 34.77C188.721 34.77 189.063 34.8365 189.364 34.9695C189.658 35.0986 189.923 35.2875 190.141 35.5241C190.358 35.7609 190.523 36.0396 190.636 36.3602C190.749 36.6804 190.806 37.0329 190.806 37.4174V41.914C190.806 42.0128 190.757 42.0621 190.658 42.062H189.297ZM177.508 40.3911C177.508 40.4499 177.538 40.4793 177.597 40.4793H179.091C179.653 40.4795 180.104 40.3811 180.445 40.1844C180.785 39.9876 181.029 39.6626 181.177 39.2096C181.21 39.1266 181.235 39.0403 181.251 38.9521C181.27 38.8488 181.288 38.7158 181.302 38.5532C181.317 38.3909 181.33 38.1867 181.34 37.9406C181.35 37.6358 181.355 37.3308 181.354 37.0258C181.354 36.6617 181.349 36.3567 181.34 36.1107C181.332 35.9038 181.32 35.6971 181.302 35.4908C181.292 35.3571 181.275 35.224 181.251 35.0922C181.235 35.0062 181.21 34.9221 181.177 34.8412C181.029 34.3885 180.785 34.0637 180.445 33.8669C180.104 33.6703 179.653 33.5719 179.091 33.5717H177.597C177.538 33.5717 177.508 33.6012 177.508 33.6602V40.3911ZM175.763 32.1368C175.763 32.0385 175.812 31.9892 175.911 31.9891H179.513C181.272 31.9891 182.393 32.7347 182.877 34.2259C182.917 34.3542 182.951 34.49 182.981 34.6333C183.015 34.8072 183.043 34.9825 183.063 35.1587C183.087 35.3666 183.105 35.6211 183.115 35.9222C183.124 36.2235 183.129 36.5914 183.129 37.0258C183.129 37.46 183.124 37.8279 183.115 38.1293C183.108 38.3843 183.09 38.6388 183.063 38.8924C183.038 39.0997 183.011 39.2749 182.981 39.418C182.953 39.5554 182.918 39.6913 182.877 39.8254C182.393 41.3168 181.272 42.0623 179.513 42.062H175.911C175.812 42.062 175.763 42.0127 175.763 41.9142V32.1368ZM168.574 42.062C168.475 42.062 168.426 42.0127 168.426 41.9142V41.3966H168.411C168.211 41.6449 167.962 41.8489 167.679 41.9957C167.388 42.1484 167.016 42.2248 166.562 42.2249C166.178 42.2249 165.835 42.1584 165.534 42.0255C165.241 41.8979 164.979 41.7085 164.765 41.4703C164.553 41.2341 164.39 40.9555 164.277 40.6348C164.164 40.3143 164.107 39.9618 164.107 39.5772V35.0804C164.107 34.9818 164.156 34.9325 164.255 34.9327H165.616C165.714 34.9327 165.763 34.9819 165.764 35.0802V39.1928C165.764 39.6561 165.872 40.0307 166.089 40.3168C166.306 40.6028 166.641 40.7457 167.095 40.7457C167.519 40.7457 167.847 40.6028 168.079 40.3168C168.31 40.0309 168.426 39.661 168.426 39.2071V35.0804C168.426 34.9818 168.475 34.9325 168.574 34.9327H169.935C170.034 34.9327 170.083 34.9819 170.083 35.0802V41.9142C170.083 42.0127 170.034 42.0619 169.935 42.0617L168.574 42.062ZM159.514 40.7457C160.195 40.7457 160.633 40.44 160.831 39.8284C160.88 39.661 160.917 39.4785 160.942 39.281C160.966 39.0839 160.979 38.8227 160.979 38.4975C160.979 38.1722 160.966 37.9108 160.942 37.7134C160.919 37.5282 160.882 37.3452 160.831 37.166C160.633 36.5548 160.195 36.2492 159.514 36.2492C158.824 36.2492 158.38 36.5548 158.183 37.166C158.131 37.3452 158.094 37.5282 158.072 37.7134C158.047 37.9107 158.035 38.172 158.035 38.4975C158.035 38.8226 158.047 39.0838 158.072 39.2813C158.097 39.4786 158.134 39.6611 158.183 39.8287C158.38 40.4401 158.824 40.7457 159.514 40.7457ZM159.943 42.2249C159.46 42.2248 159.065 42.1459 158.76 41.9882C158.454 41.8306 158.218 41.6285 158.05 41.3819H158.035V41.9142C158.035 42.0127 157.986 42.0619 157.887 42.0617H156.526C156.428 42.0619 156.378 42.0127 156.378 41.9142V32.1518C156.378 32.053 156.428 32.0036 156.526 32.0036H157.887C157.986 32.0036 158.035 32.053 158.035 32.1518V35.6131H158.05C158.217 35.3668 158.454 35.1647 158.76 35.0067C159.065 34.8489 159.46 34.77 159.943 34.77C160.555 34.7702 161.072 34.913 161.496 35.1987C161.92 35.4849 162.226 35.914 162.413 36.4859C162.502 36.7618 162.566 37.0453 162.606 37.3362C162.645 37.6271 162.665 38.0142 162.665 38.4975C162.665 38.9807 162.645 39.3676 162.606 39.6582C162.567 39.9469 162.502 40.2316 162.413 40.509C162.226 41.0811 161.92 41.5101 161.496 41.796C161.072 42.0818 160.555 42.2248 159.943 42.2249ZM152.195 38.4082L150.864 34.5038H150.82L149.474 38.4085L152.195 38.4082ZM149.991 32.1518C150.021 32.053 150.085 32.0036 150.184 32.0036H151.544C151.643 32.0036 151.707 32.053 151.737 32.1518L155.139 41.9142C155.168 42.0127 155.134 42.0619 155.035 42.0617H153.586C153.487 42.0619 153.423 42.0127 153.393 41.9142L152.728 39.9619H148.941L148.275 41.914C148.246 42.0128 148.182 42.0621 148.083 42.062H146.648C146.55 42.062 146.515 42.0127 146.545 41.9142L149.991 32.1518ZM162.984 22.2079C162.758 22.4878 162.405 22.6278 161.924 22.6278C161.453 22.6278 161.105 22.4903 160.88 22.2154C160.654 21.9404 160.541 21.4887 160.541 20.8602C160.541 20.2808 160.654 19.8388 160.88 19.5342C161.105 19.2299 161.453 19.0777 161.924 19.0775C162.856 19.0777 163.322 19.6719 163.322 20.8602C163.322 21.4789 163.209 21.9281 162.984 22.2079ZM164.111 18.3382C163.84 18.0819 163.516 17.8944 163.14 17.7758C162.764 17.6575 162.359 17.5983 161.924 17.5983C161.489 17.5983 161.089 17.655 160.723 17.7683C160.367 17.8761 160.04 18.0627 159.767 18.3142C159.495 18.5646 159.282 18.8889 159.129 19.287C158.976 19.6851 158.894 20.1694 158.884 20.7399V20.9611C158.884 21.03 158.889 21.1037 158.899 21.1823C158.899 21.4378 158.87 21.6516 158.811 21.8237C158.751 21.9958 158.677 22.1336 158.589 22.2369C158.5 22.3402 158.401 22.4138 158.293 22.4578C158.19 22.5012 158.079 22.5238 157.968 22.5243H155.903C155.62 22.5245 155.345 22.4924 155.081 22.4281C154.807 22.3616 154.536 22.2826 154.27 22.1914C153.984 22.0942 153.703 21.9855 153.426 21.8657C153.128 21.7379 152.827 21.6171 152.524 21.5033C152.435 21.4738 152.376 21.5084 152.346 21.607L151.947 22.7768C151.918 22.8662 151.947 22.9256 152.036 22.955C152.471 23.1187 152.908 23.2799 153.345 23.4386C153.715 23.5723 154.02 23.7011 154.262 23.825C154.504 23.9488 154.681 24.0778 154.794 24.212C154.908 24.3454 154.965 24.5063 154.965 24.6946C154.965 24.9222 154.856 25.1105 154.639 25.2595C154.422 25.4081 154.018 25.4824 153.426 25.4824H150.542C150.256 25.4824 149.975 25.4504 149.699 25.3865C149.423 25.3225 149.176 25.2165 148.959 25.0685C148.742 24.9206 148.567 24.7233 148.434 24.4767C148.301 24.23 148.234 23.9194 148.234 23.5446C148.234 23.1605 148.306 22.7859 148.449 22.4208C148.592 22.0559 148.747 21.7354 148.915 21.4593C148.964 21.3803 148.949 21.3161 148.87 21.2668L147.702 20.6607C147.613 20.6014 147.544 20.6112 147.495 20.6902C147.357 20.8843 147.236 21.0897 147.133 21.3041C146.893 21.7968 146.718 22.3189 146.615 22.857C146.561 23.1323 146.534 23.4121 146.533 23.6926C146.533 24.7084 146.846 25.512 147.471 26.1036C148.096 26.6951 149.049 26.991 150.329 26.9911H153.697C154.228 26.9911 154.679 26.9345 155.048 26.8212C155.417 26.7077 155.718 26.5573 155.949 26.37C156.181 26.1827 156.351 25.9658 156.459 25.7194C156.567 25.4729 156.621 25.2115 156.621 24.9351C156.623 24.7461 156.59 24.5584 156.526 24.3807C156.462 24.2077 156.406 24.0819 156.357 24.0033H157.908C158.046 24.0033 158.194 23.9934 158.352 23.9738C158.509 23.9539 158.663 23.9161 158.811 23.8613C158.965 23.8037 159.11 23.7257 159.243 23.6293C159.386 23.5246 159.508 23.3924 159.601 23.2404C159.868 23.5493 160.198 23.771 160.593 23.9053C160.989 24.0396 161.433 24.1067 161.927 24.1067C162.381 24.1067 162.796 24.0476 163.171 23.9293C163.547 23.8113 163.867 23.624 164.134 23.3674C164.401 23.1111 164.608 22.7807 164.756 22.3761C164.905 21.972 164.979 21.4791 164.979 20.8974C164.979 20.2957 164.902 19.7828 164.749 19.3587C164.596 18.9351 164.383 18.595 164.111 18.3382ZM195.967 13.9451H194.603C194.506 13.9451 194.457 13.9943 194.457 14.0926V21.7417C194.457 22.037 194.4 22.2414 194.285 22.3548C194.171 22.4678 193.99 22.5243 193.742 22.5243H192.194V16.1639C192.194 16.0651 192.145 16.0157 192.047 16.0157H190.683C190.586 16.0157 190.537 16.0651 190.537 16.1639V22.5243H187.904C187.805 22.5243 187.756 22.5741 187.756 22.6735V23.854C187.756 23.9537 187.805 24.0035 187.904 24.0035H194.398C195.014 24.0035 195.453 23.8531 195.717 23.5523C195.981 23.2516 196.113 22.7807 196.113 22.1396V14.0931C196.113 13.9946 196.064 13.9453 195.967 13.9451ZM186.455 22.5243H183.245C183.166 22.495 183.06 22.4386 182.927 22.3551C182.794 22.2715 182.665 22.1561 182.542 22.0089C182.419 21.8618 182.31 21.6826 182.217 21.4713C182.123 21.26 182.076 21.0072 182.076 20.7129C182.076 20.2122 182.211 19.8145 182.483 19.5199C182.754 19.225 183.141 19.0775 183.644 19.0775C184.255 19.0777 184.778 19.3145 185.212 19.7879C185.281 19.8669 185.35 19.8718 185.419 19.8026L186.218 18.9743C186.297 18.9153 186.312 18.8462 186.262 18.7669C186.006 18.4319 185.651 18.1535 185.197 17.9315C184.744 17.7097 184.191 17.5988 183.54 17.5986C182.939 17.5986 182.434 17.6921 182.025 17.879C181.615 18.0657 181.285 18.3039 181.033 18.5939C180.786 18.8761 180.602 19.208 180.494 19.5674C180.385 19.9262 180.331 20.2778 180.331 20.6222C180.331 21.0545 180.395 21.423 180.523 21.728C180.651 22.0329 180.814 22.2984 181.011 22.5243H175.821C175.101 22.5243 174.697 22.2684 174.608 21.7565V14.0928C174.608 13.9944 174.559 13.9451 174.462 13.9451H173.098C173 13.9451 172.951 13.9943 172.951 14.0926V21.1956C172.951 21.4414 172.946 21.6505 172.936 21.823C172.926 21.9951 172.897 22.1329 172.847 22.2364C172.797 22.3397 172.725 22.4135 172.631 22.4578C172.537 22.5023 172.406 22.5245 172.237 22.5243H170.688V16.1639C170.688 16.0654 170.64 16.0161 170.542 16.0159H169.178C169.08 16.0159 169.031 16.0653 169.031 16.1639V22.5243H166.399C166.3 22.5243 166.251 22.5741 166.251 22.6738V23.8543C166.251 23.9538 166.3 24.0035 166.399 24.0035H172.706C173.159 24.0035 173.52 23.9488 173.79 23.8393C174.061 23.7298 174.265 23.5355 174.403 23.2564C174.579 23.5752 174.808 23.7793 175.089 23.8688C175.37 23.9588 175.698 24.0037 176.073 24.0035H186.455C186.553 24.0035 186.603 23.9538 186.603 23.8543V22.6738C186.603 22.5743 186.553 22.5245 186.455 22.5243ZM225.993 16.3856H227.413C227.511 16.3856 227.561 16.3359 227.561 16.2366V14.9519C227.561 14.8526 227.511 14.8029 227.413 14.8029H225.993C225.894 14.8029 225.845 14.8527 225.845 14.9522V16.2366C225.845 16.3361 225.894 16.3858 225.993 16.3856ZM269.525 16.3856H270.768C270.866 16.3856 270.915 16.3359 270.915 16.2366V14.9519C270.915 14.8526 270.866 14.8029 270.768 14.8029H269.525C269.427 14.8029 269.377 14.8527 269.377 14.9522V16.2366C269.377 16.3361 269.427 16.3858 269.525 16.3856ZM153.278 28.0119H152.036C151.937 28.0119 151.888 28.0617 151.888 28.1614V29.4451C151.888 29.5448 151.937 29.5946 152.036 29.5946H153.278C153.377 29.5946 153.426 29.5448 153.426 29.4451V28.1614C153.426 28.0617 153.377 28.0119 153.278 28.0119ZM267.602 16.3856H268.845C268.943 16.3856 268.993 16.3359 268.993 16.2366V14.9519C268.993 14.8526 268.943 14.8029 268.845 14.8029H267.602C267.504 14.8029 267.454 14.8527 267.454 14.9522V16.2366C267.454 16.3361 267.504 16.3858 267.602 16.3856ZM199.561 13.9451H198.198C198.1 13.9451 198.051 13.9944 198.051 14.0931V23.8555C198.051 23.9542 198.1 24.0035 198.198 24.0035H199.561C199.659 24.0035 199.708 23.9542 199.708 23.8555V14.0931C199.708 13.9946 199.659 13.9453 199.561 13.9451ZM151.355 28.0119H150.113C150.014 28.0119 149.965 28.0617 149.965 28.1614V29.4451C149.965 29.5448 150.014 29.5946 150.113 29.5946H151.355C151.454 29.5946 151.503 29.5448 151.503 29.4451V28.1614C151.503 28.0617 151.454 28.0119 151.355 28.0119ZM192.904 27.361H191.41C191.301 27.2819 191.195 27.1711 191.091 27.0286C190.988 26.8851 190.936 26.7149 190.936 26.518C190.936 26.3109 191 26.1359 191.128 25.9931C191.257 25.8498 191.434 25.7782 191.661 25.7784C191.927 25.7784 192.164 25.8918 192.371 26.1186C192.391 26.1386 192.41 26.1486 192.43 26.1486C192.45 26.1486 192.48 26.1287 192.519 26.0891L192.903 25.7341C192.943 25.6946 192.943 25.6453 192.903 25.5862C192.775 25.4184 192.603 25.2852 192.386 25.1868C192.169 25.0881 191.922 25.0388 191.646 25.0388C191.36 25.0388 191.119 25.0831 190.922 25.1718C190.724 25.2607 190.561 25.3766 190.433 25.5194C190.309 25.6556 190.216 25.8171 190.16 25.9928C190.107 26.1577 190.079 26.3298 190.078 26.503C190.078 26.6708 190.1 26.8287 190.145 26.9766C190.189 27.1243 190.246 27.2524 190.315 27.361H189.768C189.708 27.361 189.679 27.3955 189.679 27.4645V27.9969C189.679 28.0661 189.709 28.1006 189.768 28.1006H192.904C192.963 28.1006 192.992 28.0661 192.992 27.9969V27.4645C192.992 27.3954 192.963 27.3609 192.904 27.361ZM248.922 13.9451H247.558C247.46 13.9451 247.412 13.9944 247.412 14.0931V23.8555C247.412 23.9542 247.46 24.0035 247.558 24.0035H248.922C249.019 24.0035 249.068 23.9542 249.068 23.8555V14.0931C249.068 13.9946 249.019 13.9453 248.922 13.9451ZM209.574 28.0119H208.331C208.233 28.0119 208.184 28.0617 208.184 28.1614V29.4451C208.184 29.5448 208.233 29.5946 208.331 29.5946H209.574C209.673 29.5946 209.722 29.5448 209.722 29.4451V28.1614C209.722 28.0617 209.673 28.0119 209.574 28.0119ZM236.17 22.5243H234.853C234.38 22.5243 234.018 22.4114 233.766 22.1856C233.515 21.9598 233.389 21.5376 233.389 20.9189C233.389 20.359 233.515 19.9123 233.766 19.5787C234.017 19.2449 234.365 19.078 234.809 19.0778C235.282 19.0778 235.627 19.2275 235.844 19.5269C236.061 19.8267 236.169 20.2662 236.17 20.8454V22.5243ZM245.328 17.865H243.964C243.866 17.865 243.817 17.9141 243.817 18.0123V21.743C243.817 22.0377 243.76 22.2418 243.647 22.3551C243.533 22.4677 243.353 22.5241 243.107 22.5243H237.826V20.8582C237.826 20.2583 237.752 19.7517 237.604 19.3385C237.456 18.9259 237.248 18.5917 236.981 18.3359C236.714 18.0803 236.395 17.8935 236.025 17.7756C235.654 17.6577 235.246 17.5988 234.801 17.5986C234.396 17.5988 234.011 17.6604 233.645 17.7836C233.283 17.9049 232.953 18.1073 232.681 18.3752C232.404 18.6466 232.182 18.9967 232.014 19.4255C231.846 19.8545 231.762 20.3698 231.762 20.9711C231.762 21.5332 231.828 22.0066 231.962 22.3913C232.095 22.7758 232.284 23.0889 232.531 23.3306C232.777 23.5723 233.081 23.7447 233.44 23.848C233.8 23.9517 234.212 24.0035 234.675 24.0035H236.17C236.17 24.3089 236.14 24.5604 236.081 24.7578C236.022 24.955 235.938 25.1079 235.83 25.2165C235.721 25.3248 235.583 25.4012 235.415 25.4457C235.247 25.49 235.05 25.5122 234.823 25.5122H233.093C232.994 25.5122 232.945 25.5615 232.945 25.6602V26.8434C232.945 26.9421 232.994 26.9914 233.093 26.9914H235.09C235.979 26.9914 236.657 26.7794 237.125 26.3555C237.592 25.9313 237.826 25.2557 237.826 24.3289V24.0035H243.758C244.374 24.0035 244.814 23.8531 245.078 23.5523C245.342 23.2519 245.474 22.7811 245.474 22.1399V18.013C245.474 17.9144 245.425 17.865 245.328 17.865Z" fill="#EEEEEE"/>
<path d="M288.639 22.2078C288.414 22.4878 288.06 22.6277 287.58 22.6277C287.109 22.6277 286.761 22.4903 286.535 22.2153C286.31 21.9404 286.197 21.4886 286.197 20.8601C286.197 20.2807 286.31 19.8387 286.535 19.5341C286.761 19.2299 287.109 19.0776 287.58 19.0775C288.512 19.0776 288.977 19.6718 288.978 20.8601C288.978 21.4788 288.865 21.928 288.639 22.2078ZM290.405 19.3584C290.251 18.9347 290.038 18.5946 289.767 18.3381C289.495 18.0818 289.171 17.8944 288.796 17.7757C288.42 17.6574 288.015 17.5983 287.58 17.5983C287.145 17.5983 286.744 17.6549 286.378 17.7682C286.023 17.8761 285.696 18.0627 285.422 18.3141C285.15 18.5646 284.938 18.8888 284.784 19.2869C284.631 19.685 284.55 20.1693 284.54 20.7399V20.9611C284.54 21.0299 284.545 21.1036 284.555 21.1823C284.555 21.4377 284.525 21.6515 284.466 21.8236C284.407 21.9958 284.333 22.1335 284.244 22.2368C284.155 22.3401 284.057 22.4138 283.948 22.4578C283.845 22.501 283.735 22.5236 283.623 22.5242H279.23C278.865 22.5242 278.572 22.4527 278.35 22.3095C278.128 22.1666 278.017 21.9619 278.017 21.6957V20.4682C278.017 19.8766 277.929 19.4059 277.753 19.056C277.577 18.706 277.335 18.4396 277.027 18.2566C276.719 18.0745 276.351 17.9539 275.923 17.8947C275.46 17.833 274.993 17.7983 274.526 17.791L276.961 14.9363C277 14.8574 276.981 14.7882 276.903 14.7289L275.946 13.93C275.877 13.8909 275.813 13.9059 275.754 13.975L272.559 17.7318C272.512 17.7891 272.463 17.8438 272.411 17.8957C272.352 17.9555 272.322 18.0203 272.322 18.0899V19.121C272.322 19.2204 272.371 19.2702 272.47 19.2702H274.852C275.857 19.2702 276.36 19.7022 276.361 20.5662V21.361C276.36 21.5869 276.348 21.7736 276.323 21.9209C276.298 22.0682 276.244 22.1859 276.161 22.274C276.077 22.3622 275.956 22.4259 275.798 22.4653C275.64 22.5046 275.428 22.5242 275.162 22.5242H271.494L271.486 22.5247L271.479 22.5242H271.228C270.853 22.5242 270.555 22.4456 270.333 22.2883C270.111 22.1312 270 21.905 270 21.6099V18.0124C270 17.9141 269.951 17.865 269.853 17.865H268.592C268.534 17.865 268.477 17.8748 268.424 17.8945C268.37 17.9143 268.343 17.9536 268.343 18.0124V21.0793C268.343 21.3446 268.338 21.5683 268.328 21.7504C268.319 21.932 268.291 22.0795 268.247 22.1928C268.203 22.3058 268.134 22.3892 268.04 22.443C267.946 22.4972 267.811 22.5242 267.633 22.5242H266.42C266.055 22.5244 265.764 22.4507 265.547 22.303C265.331 22.1556 265.212 21.9393 265.192 21.6542V18.0124C265.192 17.9141 265.143 17.865 265.045 17.865H263.683C263.585 17.865 263.536 17.9141 263.536 18.0124V21.2418C263.536 21.4777 263.529 21.6793 263.514 21.8464C263.499 22.0132 263.467 22.1459 263.417 22.2446C263.373 22.3384 263.297 22.4138 263.203 22.458C263.109 22.5025 262.978 22.5247 262.811 22.5245H256.687C256.44 22.5245 256.26 22.4678 256.147 22.3543C256.034 22.241 255.977 22.0363 255.977 21.7402V18.945C255.977 18.8464 255.928 18.7971 255.829 18.7973H254.469C254.37 18.7973 254.32 18.8464 254.32 18.9447V22.1251C254.32 22.7699 254.454 23.2442 254.72 23.5478C254.986 23.8519 255.43 24.0039 256.051 24.0037H263.285C263.748 24.0037 264.115 23.9464 264.386 23.832C264.657 23.7172 264.862 23.5204 265 23.2416C265.168 23.5604 265.395 23.767 265.681 23.8615C265.966 23.9564 266.297 24.0039 266.672 24.0037H268.047C268.518 24.0037 268.893 23.9489 269.171 23.8392C269.45 23.7297 269.658 23.5305 269.794 23.2413C269.961 23.5604 270.187 23.7672 270.473 23.8617C270.759 23.9564 271.095 24.0037 271.479 24.0037L271.487 24.0032L271.494 24.0037H275.843C276.305 24.0037 276.688 23.9415 276.991 23.817C277.294 23.6923 277.528 23.4707 277.694 23.1521C277.86 23.5009 278.096 23.73 278.402 23.8395C278.707 23.9489 279.067 24.0037 279.481 24.0037H283.563C283.702 24.0037 283.85 23.9937 284.008 23.9737C284.164 23.9538 284.319 23.9161 284.467 23.8612C284.62 23.8037 284.765 23.7258 284.898 23.6295C285.042 23.5248 285.164 23.3926 285.257 23.2406C285.523 23.5495 285.854 23.7712 286.249 23.9055C286.644 24.0398 287.089 24.1069 287.582 24.1069C288.037 24.1069 288.452 24.0478 288.827 23.9295C289.202 23.8115 289.523 23.6242 289.79 23.3676C290.057 23.1113 290.264 22.7809 290.412 22.3763C290.56 21.9722 290.634 21.4793 290.634 20.8976C290.634 20.2959 290.558 19.7825 290.405 19.3584ZM260.444 25.2604H259.024C258.926 25.2604 258.876 25.3102 258.876 25.4099V26.6939C258.876 26.7934 258.926 26.8432 259.024 26.8433H260.444C260.543 26.8433 260.592 26.7935 260.592 26.6939V25.4099C260.592 25.3102 260.543 25.2604 260.444 25.2604ZM249.779 12.4511H248.285C248.177 12.3821 248.071 12.2761 247.968 12.1329C247.864 11.9903 247.812 11.8202 247.812 11.6228C247.812 11.4058 247.876 11.2258 248.004 11.0826C248.133 10.9398 248.31 10.8684 248.537 10.8684C248.671 10.8676 248.803 10.9006 248.922 10.9644C249.04 11.0289 249.148 11.1103 249.247 11.2086C249.286 11.2481 249.335 11.2431 249.395 11.1936L249.779 10.8237C249.809 10.7942 249.809 10.7499 249.779 10.6907C249.651 10.5233 249.479 10.3876 249.262 10.2838C249.045 10.1805 248.798 10.1288 248.522 10.1288C248.236 10.1288 247.994 10.1757 247.797 10.2693C247.6 10.3631 247.437 10.4814 247.309 10.624C247.185 10.7602 247.091 10.9218 247.035 11.0976C246.982 11.2625 246.955 11.4344 246.954 11.6075C246.954 11.7757 246.976 11.9311 247.021 12.0739C247.065 12.2169 247.122 12.3426 247.191 12.4511H246.644C246.584 12.4511 246.555 12.4856 246.555 12.5546V13.102C246.555 13.171 246.585 13.2055 246.644 13.2055H249.779C249.838 13.2055 249.868 13.171 249.868 13.102V12.5546C249.868 12.4856 249.838 12.4511 249.779 12.4511ZM211.498 28.0118H210.256C210.157 28.0118 210.108 28.0617 210.108 28.1613V29.445C210.108 29.5447 210.157 29.5945 210.256 29.5945H211.498C211.597 29.5945 211.646 29.5447 211.646 29.445V28.1613C211.646 28.0617 211.597 28.0118 211.498 28.0118ZM218.672 25.2309H217.252C217.154 25.2309 217.104 25.2808 217.104 25.3804V26.6641C217.104 26.7639 217.154 26.8138 217.252 26.8136H218.672C218.771 26.8136 218.82 26.7638 218.82 26.6641V25.3804C218.82 25.2808 218.771 25.2309 218.672 25.2309Z" fill="#EEEEEE"/>
<path d="M228.448 21.8982C228.398 22.0995 228.301 22.2468 228.158 22.3401C228.015 22.4334 227.812 22.4875 227.55 22.5025C227.288 22.517 226.949 22.5242 226.534 22.524H223.3C223.32 22.4264 223.335 22.3233 223.345 22.2149C223.354 22.1072 223.359 21.9942 223.359 21.8759V19.8728C223.775 19.6769 224.25 19.4953 224.784 19.3282C225.312 19.1623 225.862 19.0778 226.416 19.0778C226.831 19.0778 227.172 19.122 227.439 19.2105C227.706 19.2988 227.921 19.4264 228.084 19.5932C228.247 19.7605 228.361 19.9667 228.425 20.2118C228.49 20.4572 228.522 20.7372 228.522 21.0516C228.522 21.4149 228.497 21.697 228.448 21.8982ZM229.43 18.5599C229.138 18.2544 228.765 18.0178 228.31 17.85C227.856 17.6824 227.303 17.5985 226.65 17.5983C226.047 17.5985 225.466 17.6799 224.908 17.8425C224.35 18.0052 223.833 18.1999 223.36 18.4269V14.0931C223.359 13.9944 223.31 13.9451 223.213 13.9451H221.85C221.752 13.9451 221.703 13.9943 221.703 14.0928V20.6489C221.703 21.033 221.695 21.3455 221.681 21.5865C221.666 21.8278 221.634 22.0197 221.584 22.1624C221.535 22.3053 221.461 22.4014 221.362 22.4506C221.264 22.4997 221.131 22.5242 220.963 22.524H220.002C219.627 22.524 219.329 22.4455 219.107 22.2883C218.885 22.1312 218.774 21.9051 218.774 21.61V18.0122C218.774 17.9139 218.725 17.8648 218.627 17.8648H217.264C217.166 17.8648 217.117 17.9139 217.117 18.0122V21.1381C217.117 21.3937 217.112 21.61 217.102 21.7869C217.092 21.9644 217.066 22.1061 217.021 22.2144C216.982 22.317 216.905 22.4012 216.807 22.4506C216.708 22.4997 216.575 22.5242 216.408 22.524H214.121C213.844 22.5247 213.568 22.4925 213.299 22.4281C213.025 22.3616 212.754 22.2826 212.487 22.1914C212.202 22.0942 211.921 21.9857 211.644 21.8659C211.346 21.738 211.046 21.6172 210.742 21.5035C210.653 21.4742 210.594 21.5088 210.565 21.6072L210.165 22.777C210.135 22.866 210.165 22.9254 210.254 22.9552C210.69 23.1186 211.126 23.2797 211.563 23.4386C211.933 23.5721 212.238 23.701 212.48 23.825C212.722 23.9488 212.899 24.0777 213.012 24.2117C213.126 24.3457 213.182 24.5066 213.182 24.6946C213.182 24.9225 213.074 25.1108 212.857 25.2595C212.64 25.4081 212.236 25.4824 211.644 25.4824H208.76C208.476 25.4825 208.193 25.4503 207.917 25.3864C207.641 25.3223 207.394 25.2162 207.177 25.0683C206.96 24.9205 206.785 24.7232 206.652 24.4766C206.519 24.23 206.453 23.9194 206.453 23.5448C206.452 23.1602 206.524 22.7856 206.667 22.4208C206.81 22.0559 206.965 21.7354 207.133 21.4593C207.182 21.3803 207.167 21.3162 207.089 21.2671L205.92 20.6604C205.831 20.6012 205.762 20.6112 205.713 20.6899C205.575 20.8838 205.453 21.0892 205.35 21.3038C205.234 21.5437 205.132 21.7908 205.047 22.0436C204.957 22.3094 204.885 22.5812 204.833 22.857C204.779 23.1323 204.752 23.4122 204.751 23.6928C204.751 24.7081 205.064 25.5117 205.689 26.1038C206.314 26.6953 207.267 26.9912 208.547 26.9914H211.915C212.446 26.9912 212.897 26.9345 213.266 26.8214C213.635 26.7077 213.935 26.5573 214.167 26.37C214.398 26.1825 214.568 25.9656 214.677 25.7191C214.785 25.4721 214.841 25.2051 214.839 24.9353C214.841 24.7461 214.808 24.5583 214.744 24.3804C214.68 24.2079 214.624 24.0823 214.576 24.0035H216.851C217.321 24.0035 217.691 23.9487 217.96 23.8393C218.229 23.7295 218.432 23.5302 218.569 23.2414C218.735 23.5603 218.961 23.767 219.247 23.8615C219.503 23.9463 219.799 23.993 220.133 24.0015C220.153 24.0025 221.451 24.0035 221.451 24.0035C221.726 24.0035 221.964 23.9887 222.164 23.959C222.356 23.9325 222.54 23.8616 222.7 23.752C222.827 23.9197 223.047 24.0035 223.36 24.0035H227.258C227.801 24.0035 228.264 23.9689 228.644 23.8998C229.025 23.8308 229.336 23.6927 229.578 23.4856C229.82 23.2785 229.995 22.9877 230.104 22.6133C230.213 22.2384 230.267 21.7451 230.267 21.1336C230.267 20.6012 230.2 20.1156 230.067 19.6769C229.933 19.2381 229.721 18.8658 229.43 18.5599ZM245.103 25.231H243.684C243.585 25.231 243.536 25.2808 243.536 25.3804V26.6642C243.536 26.764 243.585 26.8138 243.683 26.8136H245.103C245.202 26.8136 245.251 26.7638 245.251 26.6642V25.3804C245.251 25.2808 245.202 25.231 245.103 25.231Z" fill="#EEEEEE"/>
</g>
<defs>
<clipPath id="clip0_48_96">
<rect width="212.002" height="56" fill="white" transform="translate(146.538)"/>
</clipPath>
</defs>
</svg>
